<svg xmlns="http://www.w3.org/2000/svg" width="17.867" height="18.517" viewBox="178.517 149.817 17.867 18.517"><path d="m192.176 162.164-.825 2.652-2.652.265-.773 2.609-2.57.63-4.883-11.93-1.195-1.425c-1.122-1.337-.966-3.314.347-4.417 1.314-1.102 3.288-.912 4.41.425l1.142 1.36 11.206 6.735-1.052 2.408-3.155.688Zm2.21-1.839.322-.735-10.242-6.155-2.819 2.365 4.487 10.964.74-.182.809-2.729 2.664-.267.794-2.553 3.245-.708Zm-14.106-6.2.534.637 2.754-2.311-.534-.637c-.649-.773-1.794-.884-2.553-.246-.76.637-.85 1.784-.201 2.557Z" fill="#0a3133" fill-rule="evenodd" data-name="Union 156"/></svg>