<svg xmlns="http://www.w3.org/2000/svg" width="18.617" height="20.483" viewBox="175.283 93.933 18.617 20.483"><g data-name="Group 2554"><path d="M192.804 114.201a.874.874 0 0 1-1.231-.108l-3.525-4.2c-.387-.06-.912-.124-1.5-.145-.874-.031-1.942.005-2.493.029-.1.009-.199.016-.298.02l.011.055-.011-.055a5.586 5.586 0 0 1-4.52-1.994l-2.64-3.147a5.595 5.595 0 0 1 .689-7.882l1.808-1.517a5.595 5.595 0 0 1 7.881.69l2.641 3.147a5.585 5.585 0 0 1 1.179 4.799l.051.02-.051-.02a5.626 5.626 0 0 1-.077.308c-.12.543-.337 1.575-.458 2.432-.08.568-.108 1.085-.117 1.473l3.539 4.217c.31.37.262.922-.108 1.232l-.77.646Zm-3.752-5.41a13.34 13.34 0 0 1 .068-1.985 5.675 5.675 0 0 1-.193.17l-1.808 1.517c-.067.055-.134.11-.202.161 1.032.07 1.816.243 1.967.278l.168-.14Zm-11.418-5.006 2.64 3.147a4.244 4.244 0 0 0 5.974.523l1.808-1.517a4.244 4.244 0 0 0 .522-5.973l-2.64-3.148a4.244 4.244 0 0 0-5.973-.522l-1.808 1.517a4.244 4.244 0 0 0-.523 5.973Z" fill="#0a3133" fill-rule="evenodd" data-name="Union 80"/><path d="M186.644 102.985a.787.787 0 1 1 1.205-1.012.787.787 0 0 1-1.205 1.012Zm-2.132 1.789a.787.787 0 1 1 1.205-1.012.787.787 0 0 1-1.205 1.012Zm-2.133 1.789a.787.787 0 1 1 1.206-1.012.787.787 0 0 1-1.206 1.012Zm2.257-5.971a.787.787 0 1 1 1.205-1.012.787.787 0 0 1-1.205 1.012Zm-2.132 1.789a.787.787 0 1 1 1.205-1.012.787.787 0 0 1-1.205 1.012Zm-2.133 1.789a.787.787 0 1 1 1.206-1.012.787.787 0 0 1-1.206 1.012Zm2.257-5.972a.787.787 0 1 1 1.205-1.011.787.787 0 0 1-1.205 1.011Zm-2.133 1.79a.787.787 0 1 1 1.206-1.012.787.787 0 0 1-1.206 1.011Zm-2.132 1.788a.787.787 0 1 1 1.206-1.011.787.787 0 0 1-1.206 1.011Z" fill="#0a3133" fill-rule="evenodd" data-name="Union 82"/></g></svg>