<svg xmlns="http://www.w3.org/2000/svg" width="16.833" height="18.733" viewBox="48.45 198.65 16.833 18.733"><path d="M64.328 217.188a.764.764 0 0 1-1.077-.09l-3.374-4.02c-.297-.181-.74-.43-1.261-.661a31.73 31.73 0 0 0-2.18-.838 8.954 8.954 0 0 1-.098-.023l-.008.044.008-.044c-2.224-.527-4.789-2.017-6.336-3.86-2.56-3.053-1.642-5.674.614-7.566 2.255-1.893 4.936-2.293 7.497.76 1.547 1.843 2.594 4.613 2.746 6.88h.035-.035c.004.065.008.129.01.192.074.45.24 1.423.432 2.201.14.565.312 1.051.44 1.376l3.36 4.006a.764.764 0 0 1-.097 1.076l-.676.567Zm-3.433-5.167c-.128-.309-.327-.83-.497-1.46a2.222 2.222 0 0 1-.508.62c-.212.178-.463.312-.745.406.6.28 1.086.57 1.371.752l.379-.318Zm-9.991-5.082c2.338 2.786 6.976 4.398 8.24 3.344 1.231-1.033.41-5.846-1.933-8.637-1.856-2.212-3.713-2.41-5.845-.622-2.142 1.798-2.293 3.732-.462 5.915Z" fill="#0a3133" fill-rule="evenodd" data-name="Union 157"/></svg>