<svg xmlns="http://www.w3.org/2000/svg" width="21.633" height="24.133" viewBox="44.75 92.4 21.633 24.133"><g data-name="Group 2552"><path d="m56.675 106.157-1.567-1.867-1.472 1.235.707.843a.573.573 0 1 1-.877.737l-.708-.843-.55.462a.573.573 0 1 1-.737-.878l.55-.462-1.235-1.472-.834.7a.573.573 0 1 1-.737-.878l.835-.7-1.236-1.473-.55.462a.573.573 0 1 1-.737-.877l.55-.462-.707-.843a.573.573 0 0 1 .878-.737l.707.843 1.473-1.235-1.567-1.868a.573.573 0 1 1 .878-.736l1.566 1.867 1.473-1.235-.708-.844a.573.573 0 0 1 .878-.736l.708.843.55-.462a.573.573 0 0 1 .737.878l-.55.462 1.235 1.472.834-.7a.573.573 0 1 1 .736.878l-.834.7 1.236 1.472.55-.461a.573.573 0 1 1 .737.877l-.55.462.707.843a.573.573 0 1 1-.878.737l-.707-.843-1.473 1.235 1.567 1.867a.573.573 0 1 1-.878.737Zm.047-4.717-1.236-1.472-1.472 1.235 1.236 1.473 1.472-1.236Zm-2.35 1.972-1.236-1.472-1.472 1.235 1.235 1.473 1.473-1.236Zm.378-4.322-1.236-1.473-1.472 1.236 1.236 1.472 1.472-1.235Zm-2.35 1.972-1.236-1.473-1.472 1.236 1.235 1.472 1.473-1.235Z" fill="#0a3133" fill-rule="evenodd" data-name="Union 81"/><path d="M65.187 116.303a.955.955 0 0 1-1.345-.117l-4.071-4.852a13.94 13.94 0 0 0-1.635-.722 38.036 38.036 0 0 0-2.548-.797c-2.844.301-6.044-1.015-8.306-3.71-3.322-3.96-3.363-9.395-.09-12.141 3.272-2.746 8.618-1.762 11.94 2.197 2.315 2.759 3.036 6.235 2.153 9.018.064.633.18 1.663.33 2.514.114.647.267 1.216.393 1.627l4.138 4.932a.955.955 0 0 1-.117 1.345l-.842.706Zm-4.19-6.207a15.253 15.253 0 0 1-.7-2.947 6.475 6.475 0 0 1-2.5 2.06 15.259 15.259 0 0 1 2.814 1.211l.386-.324Zm-12.581-4.943c2.792 3.327 7.213 4.231 9.855 2.014 2.642-2.217 2.52-6.727-.273-10.055-2.792-3.328-7.213-4.231-9.855-2.014-2.642 2.216-2.52 6.727.273 10.055Z" fill="#0a3133" fill-rule="evenodd" data-name="Union 79"/></g></svg>