<svg xmlns="http://www.w3.org/2000/svg" width="20.05" height="20.733" viewBox="102.017 52.35 20.05 20.733"><path d="m117.289 66.085-.959 2.985-2.99.328-.9 2.937-2.903.737-5.365-13.337-1.33-1.585a3.522 3.522 0 0 1 .44-4.962 3.522 3.522 0 0 1 4.964.427l1.27 1.514 12.547 7.433-1.212 2.714-3.562.809Zm2.511-2.09.37-.829-11.467-6.793-3.202 2.687 4.93 12.256.835-.212.943-3.072 3.004-.33.923-2.875 3.664-.832Zm-15.82-6.8.594.71 3.13-2.626-.596-.709a2.042 2.042 0 0 0-3.129 2.625Z" fill="#258f95" fill-rule="evenodd" data-name="Union 145"/></svg>