<svg xmlns="http://www.w3.org/2000/svg" width="20.533" height="20.533" viewBox="31.767 51.267 20.533 20.533"><g data-name="Group 2501"><path d="M50.521 61.532a8.482 8.482 0 1 1-16.964 0 8.482 8.482 0 0 1 16.964 0Zm-8.482-3.77v-2.827m-3.384 5.325-2.893-.763m4.241 4.863-1.838 2.827m5.91-2.827 1.837 2.827m-.574-6.908 2.978-.782m-6.277-1.734-3.299 2.516 1.263 4.08h4.072l1.263-4.08-3.3-2.516Z" stroke-linejoin="round" stroke-linecap="round" stroke-width="2.5" stroke="#258f95" fill="transparent" data-name="primary"/><path d="m49.155 56.914-.84 2.583 2.187 1.593M36.384 67.187l1.81-.037.688 2.243M47.694 67.187l-1.81-.037-.688 2.243M33.576 61.09l2.186-1.593-.83-2.583M39.843 53.342l2.196 1.593 2.196-1.593" stroke-linejoin="round" stroke-linecap="round" stroke-width="2.5" stroke="#258f95" fill="transparent" data-name="primary"/></g></svg>