<svg xmlns="http://www.w3.org/2000/svg" width="19.717" height="22.017" viewBox="3.183 51.333 19.717 22.017"><g data-name="Group 2500"><path d="m14.05 63.884-1.428-1.702-1.343 1.126.645.769a.522.522 0 1 1-.8.671l-.645-.768-.502.42a.522.522 0 1 1-.672-.8l.502-.42-1.127-1.343-.76.638a.522.522 0 1 1-.672-.8l.76-.639-1.126-1.342-.502.42a.522.522 0 1 1-.671-.8l.502-.42-.646-.77a.522.522 0 0 1 .8-.671l.646.769 1.343-1.127-1.43-1.703a.522.522 0 1 1 .801-.671l1.429 1.702 1.343-1.126-.645-.769a.522.522 0 0 1 .8-.672l.645.77.502-.422a.522.522 0 0 1 .672.8l-.502.422 1.126 1.342.76-.638a.522.522 0 1 1 .672.8l-.76.639 1.127 1.342.501-.42a.522.522 0 0 1 .672.8l-.502.42.645.77a.522.522 0 1 1-.8.671l-.645-.769-1.343 1.127 1.429 1.702a.522.522 0 1 1-.8.672Zm.043-4.301-1.127-1.343-1.342 1.127 1.126 1.342 1.343-1.126ZM11.95 61.38l-1.127-1.343-1.342 1.127 1.126 1.343 1.343-1.127Zm.345-3.941-1.127-1.343-1.342 1.127 1.126 1.342 1.343-1.126Zm-2.143 1.798-1.127-1.343-1.342 1.127 1.126 1.343 1.343-1.127Z" fill="#258f95" fill-rule="evenodd" data-name="Union 150"/><path d="M21.812 73.136a.87.87 0 0 1-1.226-.107l-3.713-4.425a12.711 12.711 0 0 0-1.49-.657 34.685 34.685 0 0 0-2.324-.727c-2.594.274-5.512-.926-7.574-3.384-3.03-3.61-3.066-8.567-.082-11.07 2.984-2.504 7.858-1.607 10.888 2.003 2.11 2.516 2.768 5.686 1.963 8.223.058.578.164 1.517.3 2.293.105.59.244 1.108.359 1.483l3.774 4.498a.87.87 0 0 1-.108 1.226l-.767.644Zm-3.82-5.66a13.908 13.908 0 0 1-.638-2.688 5.904 5.904 0 0 1-2.281 1.88 13.914 13.914 0 0 1 2.566 1.105l.353-.297ZM6.519 62.968c2.546 3.035 6.577 3.859 8.986 1.837 2.41-2.021 2.298-6.134-.248-9.169-2.546-3.034-6.578-3.858-8.987-1.836-2.409 2.021-2.297 6.134.249 9.168Z" fill="#258f95" fill-rule="evenodd" data-name="Union 149"/></g></svg>