<svg id="download-on-the-app-store-apple-logo-svgrepo-com" xmlns="http://www.w3.org/2000/svg" xmlns:xlink="http://www.w3.org/1999/xlink" width="543.964" height="77.101" viewBox="0 0 543.964 77.101">
  <defs>
    <linearGradient id="linear-gradient" x1="2.472" y1="1.035" x2="2.361" y2="1.005" gradientUnits="objectBoundingBox">
      <stop offset="0" stop-color="#00a0ff"/>
      <stop offset="0.007" stop-color="#00a1ff"/>
      <stop offset="0.26" stop-color="#00beff"/>
      <stop offset="0.512" stop-color="#00d2ff"/>
      <stop offset="0.76" stop-color="#00dfff"/>
      <stop offset="1" stop-color="#00e3ff"/>
    </linearGradient>
    <linearGradient id="linear-gradient-2" x1="1.95" y1="1.879" x2="1.69" y2="1.879" gradientUnits="objectBoundingBox">
      <stop offset="0" stop-color="#ffe000"/>
      <stop offset="0.409" stop-color="#ffbd00"/>
      <stop offset="0.775" stop-color="orange"/>
      <stop offset="1" stop-color="#ff9c00"/>
    </linearGradient>
    <linearGradient id="linear-gradient-3" x1="1.926" y1="0.946" x2="1.835" y2="0.793" gradientUnits="objectBoundingBox">
      <stop offset="0" stop-color="#ff3a44"/>
      <stop offset="1" stop-color="#c31162"/>
    </linearGradient>
    <linearGradient id="linear-gradient-4" x1="1.856" y1="2.093" x2="1.897" y2="2.025" gradientUnits="objectBoundingBox">
      <stop offset="0" stop-color="#32a071"/>
      <stop offset="0.068" stop-color="#2da771"/>
      <stop offset="0.476" stop-color="#15cf74"/>
      <stop offset="0.801" stop-color="#06e775"/>
      <stop offset="1" stop-color="#00f076"/>
    </linearGradient>
  </defs>
  <path id="Path_4072" data-name="Path 4072" d="M260.336,69.844a7.385,7.385,0,0,1-7.394,7.384H10.966a7.4,7.4,0,0,1-7.4-7.384V10.955a7.4,7.4,0,0,1,7.4-7.394H252.94a7.393,7.393,0,0,1,7.394,7.394l0,58.889Z" transform="translate(-1.845 -1.845)" fill="#fff"/>
  <path id="Path_4073" data-name="Path 4073" d="M251.1,77.1H9.12A9.121,9.121,0,0,1,0,68V9.112A9.127,9.127,0,0,1,9.12,0H251.094a9.131,9.131,0,0,1,9.12,9.112V68a9.12,9.12,0,0,1-9.118,9.1Z" fill="#a6a6a6"/>
  <path id="Path_4074" data-name="Path 4074" d="M260.336,69.844a7.385,7.385,0,0,1-7.394,7.384H10.966a7.4,7.4,0,0,1-7.4-7.384V10.955a7.4,7.4,0,0,1,7.4-7.394H252.94a7.393,7.393,0,0,1,7.394,7.394l0,58.889Z" transform="translate(-1.845 -1.845)"/>
  <path id="Path_4075" data-name="Path 4075" d="M84.629,51.033a11.176,11.176,0,0,1,5.325-9.378,11.452,11.452,0,0,0-9.018-4.874c-3.794-.4-7.473,2.269-9.406,2.269-1.971,0-4.947-2.231-8.154-2.165a12.007,12.007,0,0,0-10.106,6.162C48.9,50.611,52.16,61.726,56.347,67.84c2.094,3,4.542,6.338,7.745,6.22,3.134-.127,4.3-2,8.087-2,3.747,0,4.847,2,8.114,1.92,3.363-.052,5.481-3.008,7.5-6.029a24.713,24.713,0,0,0,3.431-6.985A10.813,10.813,0,0,1,84.629,51.033ZM78.458,32.759a11,11,0,0,0,2.519-7.884,11.21,11.21,0,0,0-7.248,3.748,10.468,10.468,0,0,0-2.584,7.593A9.26,9.26,0,0,0,78.458,32.759Z" transform="translate(-26.525 -12.888)" fill="#fff"/>
  <g id="Group_2637" data-name="Group 2637" transform="translate(81.829 34.703)">
    <path id="Path_4077" data-name="Path 4077" d="M191.479,98.054H187.1l-2.4-7.537h-8.339l-2.285,7.537h-4.264L178.076,72.4h5.1Zm-7.5-10.7-2.17-6.7q-.344-1.027-1.294-4.834h-.077q-.382,1.637-1.219,4.834l-2.133,6.7Zm28.713,1.22a10.475,10.475,0,0,1-2.565,7.46,7.521,7.521,0,0,1-5.7,2.437,5.711,5.711,0,0,1-5.284-2.624v9.708h-4.112V85.634q0-2.964-.152-6.081h3.616l.23,2.933h.077a7.316,7.316,0,0,1,11.708-.727,10.229,10.229,0,0,1,2.187,6.818Zm-4.189.15a7.626,7.626,0,0,0-1.219-4.456,4.213,4.213,0,0,0-3.579-1.826,4.276,4.276,0,0,0-2.76,1.008,4.677,4.677,0,0,0-1.618,2.647,5.367,5.367,0,0,0-.191,1.251v3.087a4.949,4.949,0,0,0,1.238,3.409,4.111,4.111,0,0,0,3.217,1.39,4.215,4.215,0,0,0,3.616-1.789A7.873,7.873,0,0,0,208.5,88.726Zm25.474-.15a10.475,10.475,0,0,1-2.565,7.46,7.526,7.526,0,0,1-5.707,2.437,5.711,5.711,0,0,1-5.284-2.624v9.708h-4.112V85.634q0-2.964-.152-6.081h3.616L220,82.485h.077a7.318,7.318,0,0,1,11.71-.727,10.239,10.239,0,0,1,2.187,6.818Zm-4.191.15a7.627,7.627,0,0,0-1.221-4.456,4.206,4.206,0,0,0-3.576-1.826,4.294,4.294,0,0,0-2.764,1.008,4.674,4.674,0,0,0-1.616,2.647,5.49,5.49,0,0,0-.193,1.251v3.087a4.966,4.966,0,0,0,1.236,3.409,4.119,4.119,0,0,0,3.221,1.39,4.21,4.21,0,0,0,3.616-1.789A7.873,7.873,0,0,0,229.784,88.726Zm27.989,2.131a6.853,6.853,0,0,1-2.281,5.331,10.114,10.114,0,0,1-6.991,2.246,12.205,12.205,0,0,1-6.646-1.6l.951-3.426a11.441,11.441,0,0,0,5.94,1.6,5.605,5.605,0,0,0,3.616-1.047,3.42,3.42,0,0,0,1.3-2.8,3.583,3.583,0,0,0-1.068-2.628,9.906,9.906,0,0,0-3.541-1.978q-6.74-2.513-6.742-7.35a6.489,6.489,0,0,1,2.38-5.177,9.412,9.412,0,0,1,6.3-2.019,12.457,12.457,0,0,1,5.826,1.219l-1.032,3.351a10.189,10.189,0,0,0-4.931-1.18,5.016,5.016,0,0,0-3.4,1.066A3.051,3.051,0,0,0,246.42,78.8a3.142,3.142,0,0,0,1.182,2.512,13.319,13.319,0,0,0,3.73,1.978,12.645,12.645,0,0,1,4.874,3.12,6.5,6.5,0,0,1,1.568,4.45ZM271.4,82.637h-4.532V91.62q0,3.427,2.4,3.424a7.224,7.224,0,0,0,1.826-.191l.114,3.122a9.318,9.318,0,0,1-3.2.455,4.929,4.929,0,0,1-3.809-1.487q-1.368-1.487-1.371-4.988V82.63h-2.7V79.545h2.7V76.157l4.038-1.219v4.606H271.4v3.093Zm20.408,6.014a10.148,10.148,0,0,1-2.438,7,8.69,8.69,0,0,1-6.777,2.817,8.284,8.284,0,0,1-6.493-2.7,9.84,9.84,0,0,1-2.418-6.814,10.066,10.066,0,0,1,2.494-7.041,8.645,8.645,0,0,1,6.723-2.742,8.458,8.458,0,0,1,6.548,2.7A9.712,9.712,0,0,1,291.811,88.651Zm-4.262.094a8.283,8.283,0,0,0-1.1-4.365,4.07,4.07,0,0,0-3.7-2.2,4.129,4.129,0,0,0-3.77,2.2,8.42,8.42,0,0,0-1.1,4.442,8.259,8.259,0,0,0,1.1,4.367,4.217,4.217,0,0,0,7.431-.037A8.316,8.316,0,0,0,287.549,88.746Zm17.633-5.578a7.156,7.156,0,0,0-1.3-.114,3.881,3.881,0,0,0-3.352,1.639,6.172,6.172,0,0,0-1.026,3.654v9.708H295.4V85.379q.006-2.913-.12-5.825h3.581l.15,3.54h.114a6.347,6.347,0,0,1,2.056-2.933,4.973,4.973,0,0,1,2.972-.991,6.6,6.6,0,0,1,1.028.075l0,3.922Zm18.389,4.76a9.64,9.64,0,0,1-.15,1.864H311.085a5.365,5.365,0,0,0,1.79,4.192,6.121,6.121,0,0,0,4.035,1.292A13.646,13.646,0,0,0,321.9,94.4l.644,2.852a15.434,15.434,0,0,1-6.2,1.143,9,9,0,0,1-6.762-2.53,9.351,9.351,0,0,1-2.455-6.794,10.6,10.6,0,0,1,2.287-6.964,7.881,7.881,0,0,1,6.47-2.967,6.9,6.9,0,0,1,6.058,2.967A9.983,9.983,0,0,1,323.571,87.928Zm-3.921-1.066a5.564,5.564,0,0,0-.8-3.16,3.591,3.591,0,0,0-3.275-1.716,3.9,3.9,0,0,0-3.273,1.675,6.139,6.139,0,0,0-1.217,3.2Z" transform="translate(-169.812 -72.016)" fill="#fff"/>
  </g>
  <g id="Group_2638" data-name="Group 2638" transform="translate(84.236 12.635)">
    <path id="Path_4078" data-name="Path 4078" d="M177.763,39.6a26.262,26.262,0,0,1-2.956-.15V27.041a22.389,22.389,0,0,1,3.481-.262c4.715,0,6.887,2.319,6.887,6.1C185.174,37.24,182.609,39.6,177.763,39.6Zm.69-11.227a8.251,8.251,0,0,0-1.628.131v9.43a10.674,10.674,0,0,0,1.365.056c3.09,0,4.848-1.758,4.848-5.052C183.039,30,181.448,28.369,178.453,28.369Zm13.488,11.322c-2.658,0-4.38-1.984-4.38-4.677,0-2.807,1.759-4.809,4.53-4.809,2.619,0,4.38,1.889,4.38,4.66,0,2.842-1.815,4.826-4.53,4.826Zm.077-8.009c-1.46,0-2.4,1.365-2.4,3.274,0,1.872.955,3.237,2.376,3.237s2.376-1.46,2.376-3.276c0-1.851-.935-3.235-2.357-3.235Zm19.608-1.29-2.845,9.093h-1.853l-1.178-3.949a29.925,29.925,0,0,1-.731-2.936h-.039a19.678,19.678,0,0,1-.729,2.936L203,39.484h-1.873l-2.677-9.093h2.077l1.03,4.323q.364,1.544.617,2.919h.039c.148-.765.391-1.722.748-2.9l1.292-4.34H205.9l1.236,4.248c.3,1.03.542,2.04.731,2.994h.054a26.169,26.169,0,0,1,.617-2.994l1.105-4.248,1.984,0ZM222.1,39.484h-2.021V34.263c0-1.608-.617-2.414-1.834-2.414a2.1,2.1,0,0,0-2.021,2.227v5.408H214.2V32.991c0-.8-.019-1.666-.075-2.6H215.9l.094,1.4h.056a3.267,3.267,0,0,1,2.883-1.589c1.909,0,3.163,1.46,3.163,3.835l0,5.445Zm5.574,0h-2.023V26.219h2.023Zm7.369.206c-2.656,0-4.38-1.984-4.38-4.677,0-2.807,1.759-4.809,4.528-4.809,2.621,0,4.38,1.889,4.38,4.66,0,2.842-1.815,4.826-4.528,4.826Zm.075-8.009c-1.46,0-2.4,1.365-2.4,3.274,0,1.872.957,3.237,2.374,3.237s2.376-1.46,2.376-3.276C237.473,33.066,236.54,31.681,235.117,31.681Zm12.422,7.8-.147-1.047h-.054a3.105,3.105,0,0,1-2.66,1.253,2.644,2.644,0,0,1-2.787-2.676c0-2.244,1.946-3.4,5.315-3.4v-.168c0-1.2-.635-1.8-1.888-1.8a4.257,4.257,0,0,0-2.376.675l-.411-1.328a5.814,5.814,0,0,1,3.122-.787c2.376,0,3.576,1.253,3.576,3.762v3.349a13.736,13.736,0,0,0,.131,2.171Zm-.278-4.529c-2.245,0-3.371.544-3.371,1.834a1.288,1.288,0,0,0,1.387,1.421,1.935,1.935,0,0,0,1.985-1.851Zm11.784,4.529-.094-1.46h-.056a3.049,3.049,0,0,1-2.92,1.666c-2.193,0-3.817-1.928-3.817-4.641,0-2.844,1.684-4.847,3.982-4.847a2.733,2.733,0,0,1,2.565,1.236h.041V26.219h2.023V37.034c0,.879.021,1.7.075,2.451h-1.8Zm-.3-5.35a2.2,2.2,0,0,0-2.129-2.358c-1.5,0-2.415,1.328-2.415,3.2,0,1.834.951,3.089,2.374,3.089a2.269,2.269,0,0,0,2.17-2.414Zm14.85,5.557c-2.656,0-4.378-1.984-4.378-4.677,0-2.807,1.759-4.809,4.528-4.809,2.621,0,4.38,1.889,4.38,4.66,0,2.842-1.813,4.826-4.53,4.826Zm.075-8.009c-1.458,0-2.393,1.365-2.393,3.274,0,1.872.955,3.237,2.374,3.237s2.376-1.46,2.376-3.276C276.031,33.066,275.1,31.681,273.671,31.681ZM289,39.484h-2.023V34.263c0-1.608-.617-2.414-1.834-2.414a2.1,2.1,0,0,0-2.019,2.227v5.408H281.1V32.991c0-.8-.019-1.666-.075-2.6H282.8l.095,1.4h.056A3.266,3.266,0,0,1,285.83,30.2c1.909,0,3.165,1.46,3.165,3.835Zm13.6-7.577H300.37v4.415c0,1.124.39,1.685,1.176,1.685a3.981,3.981,0,0,0,.9-.094l.056,1.535a4.478,4.478,0,0,1-1.568.226c-1.593,0-2.546-.879-2.546-3.181V31.907h-1.327V30.392h1.327V28.726l1.984-.6V30.39h2.224Zm10.7,7.577h-2.019V34.3c0-1.627-.615-2.451-1.834-2.451A1.982,1.982,0,0,0,307.417,34v5.481H305.4V26.219h2.019v5.462h.04a3.066,3.066,0,0,1,2.735-1.479c1.925,0,3.1,1.5,3.1,3.873Zm10.962-4.061H318.19a2.61,2.61,0,0,0,2.866,2.694,6.832,6.832,0,0,0,2.451-.43l.314,1.4a7.594,7.594,0,0,1-3.051.561,4.222,4.222,0,0,1-4.528-4.583c0-2.788,1.724-4.884,4.3-4.884,2.324,0,3.782,1.722,3.782,4.323a3.893,3.893,0,0,1-.069.916Zm-1.853-1.44c0-1.4-.708-2.395-2-2.395a2.4,2.4,0,0,0-2.21,2.395h4.21Z" transform="translate(-174.806 -26.219)" fill="#fff"/>
  </g>
  <g id="Google_Play_Store_badge_EN" transform="translate(285.474 0)">
    <path id="Path_4080" data-name="Path 4080" d="M248.913,77.1H9.577A9.634,9.634,0,0,1,0,67.463V9.638A9.622,9.622,0,0,1,9.577,0H248.913a9.625,9.625,0,0,1,9.577,9.638V67.463A9.637,9.637,0,0,1,248.913,77.1Z" fill-rule="evenodd"/>
    <path id="Path_4081" data-name="Path 4081" d="M248.913,1.543a8.094,8.094,0,0,1,8.051,8.095V67.463a8.079,8.079,0,0,1-8.051,8.095H9.577a8.1,8.1,0,0,1-8.051-8.095V9.638A8.079,8.079,0,0,1,9.577,1.543Zm0-1.543H9.577A9.634,9.634,0,0,0,0,9.638V67.463A9.622,9.622,0,0,0,9.577,77.1H248.913a9.625,9.625,0,0,0,9.577-9.638V9.638A9.637,9.637,0,0,0,248.913,0Z" fill="#a6a6a6" fill-rule="evenodd"/>
    <path id="Path_4082" data-name="Path 4082" d="M1709.818,283.2a5.6,5.6,0,0,1-4.182-1.731,5.9,5.9,0,0,1-1.689-4.224,5.764,5.764,0,0,1,1.689-4.219,5.585,5.585,0,0,1,4.178-1.731,5.661,5.661,0,0,1,4.182,1.731,6.113,6.113,0,0,1,0,8.438A5.556,5.556,0,0,1,1709.818,283.2Zm-49.586,0a5.809,5.809,0,0,1-4.2-1.708,5.95,5.95,0,0,1,4.2-10.192,5.855,5.855,0,0,1,2.346.487,4.744,4.744,0,0,1,1.786,1.276l.11.133-1.244,1.221-.129-.151a3.536,3.536,0,0,0-2.887-1.244,3.991,3.991,0,0,0-2.878,1.175,4.462,4.462,0,0,0,0,6.115,4.208,4.208,0,0,0,5.835,0,3.18,3.18,0,0,0,.845-1.914h-3.989v-1.717h5.7l.023.156a6.31,6.31,0,0,1,.083.863,5.169,5.169,0,0,1-1.423,3.81A5.554,5.554,0,0,1,1660.231,283.2Zm65.929-.243H1724.4l-5.385-8.617.046,1.552v7.061h-1.758V271.548h2.006l.055.087,5.064,8.117-.046-1.547v-6.657h1.777Zm-29.556,0h-1.781v-9.7h-3.09v-1.717h7.956v1.717h-3.09v9.7Zm-6.322,0h-1.776V271.548h1.776Zm-9.985,0h-1.777v-9.7h-3.09v-1.717h7.956v1.717h-3.09Zm-5.991-.018h-6.813V271.548h6.813v1.717h-5.032V276.4h4.54v1.7h-4.54v3.131h5.032Zm32.632-2.649a3.931,3.931,0,0,0,2.878,1.194,3.832,3.832,0,0,0,2.879-1.194,4.524,4.524,0,0,0,0-6.078,3.939,3.939,0,0,0-2.878-1.194,3.815,3.815,0,0,0-2.874,1.194,4.53,4.53,0,0,0-.009,6.078Z" transform="translate(-1574.532 -258.146)" fill="#fff"/>
    <path id="Path_4083" data-name="Path 4083" d="M1696.529,691.7a7.832,7.832,0,1,0,7.855,7.832A7.709,7.709,0,0,0,1696.529,691.7Zm0,12.561a4.759,4.759,0,1,1,4.416-4.747A4.532,4.532,0,0,1,1696.529,704.256ZM1679.392,691.7a7.832,7.832,0,1,0,7.855,7.832A7.71,7.71,0,0,0,1679.392,691.7Zm0,12.561a4.759,4.759,0,1,1,4.417-4.747A4.532,4.532,0,0,1,1679.392,704.256ZM1659,694.087V697.4h7.956a6.985,6.985,0,0,1-1.8,4.173,8.118,8.118,0,0,1-6.138,2.433,8.838,8.838,0,0,1,0-17.675,8.493,8.493,0,0,1,5.991,2.373l2.351-2.35a11.559,11.559,0,0,0-8.323-3.356,12.153,12.153,0,1,0,0,24.3,11.125,11.125,0,0,0,8.489-3.416,11,11,0,0,0,2.883-7.772,10.253,10.253,0,0,0-.184-2.066h-11.229S1659,694.087,1659,694.087Zm83.411,2.58c-.656-1.758-2.64-4.99-6.707-4.99-4.031,0-7.382,3.172-7.382,7.832a7.655,7.655,0,0,0,7.772,7.832,7.774,7.774,0,0,0,6.524-3.475l-2.658-1.781a4.454,4.454,0,0,1-3.847,2.167,4,4,0,0,1-3.806-2.373l10.472-4.338S1742.41,696.667,1742.41,696.667Zm-10.678,2.617a4.3,4.3,0,0,1,4.09-4.563,3.02,3.02,0,0,1,2.906,1.657Zm-8.507,7.589h3.439V683.863h-3.439Zm-5.647-13.437h-.124a5.424,5.424,0,0,0-4.132-1.758,7.832,7.832,0,0,0,0,15.65,5.409,5.409,0,0,0,4.132-1.781h.124v1.125c0,2.989-1.6,4.6-4.173,4.6a4.341,4.341,0,0,1-3.948-2.782l-2.989,1.249a7.475,7.475,0,0,0,6.932,4.623c4.031,0,7.446-2.373,7.446-8.163V692.145h-3.25v1.29Zm-3.948,10.821a4.762,4.762,0,0,1,0-9.489c2.35,0,4.173,2.025,4.173,4.765C1717.826,702.272,1715.985,704.256,1713.63,704.256Zm44.88-20.393h-8.222v23.009h3.439v-8.714h4.788a7.159,7.159,0,1,0,0-14.3Zm.1,11.082h-4.889v-7.9h4.889a3.949,3.949,0,1,1,0,7.9Zm21.233-3.292a6.475,6.475,0,0,0-6.138,3.517l3.048,1.267a3.269,3.269,0,0,1,3.131-1.7c1.781,0,3.581,1.065,3.622,2.966v.243a7.7,7.7,0,0,0-3.581-.881c-3.292,0-6.629,1.8-6.629,5.174,0,3.09,2.7,5.073,5.706,5.073a4.84,4.84,0,0,0,4.375-2.249h.124v1.781h3.315V698.03C1786.818,693.926,1783.77,691.654,1779.844,691.654Zm-.432,12.6c-1.125,0-2.7-.551-2.7-1.965,0-1.781,1.965-2.456,3.641-2.456a5.968,5.968,0,0,1,3.131.776A4.139,4.139,0,0,1,1779.413,704.256Zm19.5-12.111-3.948,9.981h-.124l-4.09-9.981h-3.7l6.138,13.952-3.5,7.754h3.581l9.444-21.706Zm-30.952,14.727h3.438V683.863h-3.438Z" transform="translate(-1562.162 -648.181)" fill="#fff" fill-rule="evenodd"/>
    <path id="Path_4084" data-name="Path 4084" d="M400.94,299.533a4.2,4.2,0,0,0-.84,2.793V346.09a4,4,0,0,0,.859,2.769l.142.133,22.807-24.52v-.548L401.082,299.4Z" transform="translate(-381.732 -285.655)" fill-rule="evenodd" fill="url(#linear-gradient)"/>
    <path id="Path_4085" data-name="Path 4085" d="M925.907,646.247,918.3,638.64v-.533l7.607-7.607.165.1,9,5.114c2.575,1.451,2.575,3.847,0,5.316l-9,5.114Z" transform="translate(-874.509 -599.823)" fill-rule="evenodd" fill="url(#linear-gradient-2)"/>
    <path id="Path_4086" data-name="Path 4086" d="M449.122,809.772,441.35,802,418.4,824.95c.84.9,2.249,1,3.824.124l26.9-15.3" transform="translate(-399.192 -762.629)" fill-rule="evenodd" fill="url(#linear-gradient-3)"/>
    <path id="Path_4087" data-name="Path 4087" d="M449.122,302.375l-26.9-15.278c-1.575-.9-2.989-.776-3.824.124l22.95,22.927Z" transform="translate(-399.192 -272.417)" fill-rule="evenodd" fill="url(#linear-gradient-4)"/>
    <path id="Path_4088" data-name="Path 4088" d="M449.338,967.7l-26.714,15.177c-1.492.859-2.823.8-3.682.018l-.142.142.142.124c.859.776,2.19.84,3.682-.018l26.9-15.278Z" transform="translate(-399.573 -920.602)" fill-rule="evenodd" opacity="0.2"/>
    <path id="Path_4089" data-name="Path 4089" d="M1092.686,804.392l-9.186,5.215.165.165,9-5.114a3.225,3.225,0,0,0,1.924-2.658A3.313,3.313,0,0,1,1092.686,804.392Z" transform="translate(-1031.893 -763.245)" fill-rule="evenodd" opacity="0.12"/>
    <path id="Path_4090" data-name="Path 4090" d="M404.764,287.2l35.9,20.393a3.383,3.383,0,0,1,1.924,2.392,3.224,3.224,0,0,0-1.924-2.658l-35.9-20.393c-2.576-1.474-4.664-.243-4.664,2.7v.266C400.1,286.948,402.189,285.741,404.764,287.2Z" transform="translate(-381.732 -272.251)" fill="#fff" fill-rule="evenodd" opacity="0.25"/>
  </g>
</svg>
