<svg xmlns="http://www.w3.org/2000/svg" xmlns:xlink="http://www.w3.org/1999/xlink" width="126" height="126" viewBox="0 0 126 126">
  <defs>
    <clipPath id="clip-path">
      <rect id="Rectangle_3329" data-name="Rectangle 3329" width="70" height="70" transform="translate(0.242 0.413)"/>
    </clipPath>
  </defs>
  <g id="Group_2639" data-name="Group 2639" transform="translate(-885 -417.171)">
    <rect id="Rectangle_3330" data-name="Rectangle 3330" width="126" height="126" rx="33" transform="translate(885 417.171)" fill="#e0eff0"/>
    <g id="_7_6" data-name="7 – 6" transform="translate(912.758 444.758)" clip-path="url(#clip-path)">
      <rect id="Rectangle_3328" data-name="Rectangle 3328" width="70" height="70" transform="translate(0.242 0.413)" fill="rgba(252,255,255,0)"/>
      <g id="Group_1574" data-name="Group 1574" transform="translate(2.045 0.094)">
        <path id="Path_1499" data-name="Path 1499" d="M-17407.2-961.9a21.453,21.453,0,0,1-11.1-3.049,19.717,19.717,0,0,1-9.408-16.2c-.393-7.8,2.908-14.865,8.834-18.909s13.457-4.5,20.66-1.255c4.516,2.034,10,6.252,15.238,10.9,7.684-6.78,12.572-12.5,9.154-20.933-3.939-9.719-17.9-9.892-42.244-9.361l-5.8.12a5.745,5.745,0,0,1-5.848-5.638,5.744,5.744,0,0,1,5.637-5.847l5.762-.119c24.7-.539,46.033-1,53.139,16.53,6.334,15.629-3.7,26.311-11.416,33.173,5.355,5.344,9.459,9.935,10.395,10.99a5.745,5.745,0,0,1-.492,8.106,5.742,5.742,0,0,1-8.105-.492c-2.184-2.464-6.047-6.624-10.445-10.983-6.125,5.361-11.086,9.244-14.934,11.011A21.646,21.646,0,0,1-17407.2-961.9Zm-.559-30.064a8.106,8.106,0,0,0-4.641,1.395c-2.633,1.8-4.031,5.02-3.84,8.843a8.143,8.143,0,0,0,3.891,6.954,10.281,10.281,0,0,0,9.377.482c2.707-1.244,7.416-5.091,11.307-8.464-4.17-3.644-8.205-6.7-11.268-8.084A11.8,11.8,0,0,0-17407.754-991.964Z" transform="translate(17427.736 1032.369)" fill="#478d93"/>
      </g>
    </g>
  </g>
</svg>
