<svg xmlns="http://www.w3.org/2000/svg" width="55.623" height="55.826" viewBox="396.561 478.825 55.623 55.826"><g data-name="gtg-logo"><path d="m447.147 523.243-2.778 3.12-39.664-33.202s-1.992 2.072-3.077 5.586l-3.124-2.582s2.16-4.016 4.902-7.19c2.74-3.175 6.061-5.506 6.061-5.506l3.063 2.388c-3.067 1.894-5.083 4.038-5.083 4.038l39.7 33.348Z" fill="#fff" fill-rule="evenodd" data-name="Path 2296"/><path d="M437.18 531.437c-10.022 5.201-22.04 3.958-30.147-2.779-9.444-7.917-12.12-17.931-9.547-30.448l10.537 8.828-2.328 3.245-4.694-3.372c-1.512 13.68 13.063 26.03 27.257 22.768l-10.846-9.19-2.122 2.206-4.021-3.537 4.623-5.542 21.288 17.82Z" fill="#fff" fill-rule="evenodd" data-name="Path 2295"/><path d="m450.718 515.532-39.394-33.068c6.167-3.792 12.105-4.544 19.887-2.612l-2.028 3.318c-4.485-1.007-7.24-.054-9.293.893l28.128 23.616a24.336 24.336 0 0 0-6.658-17.662l-2.549 2.248-3.016-2.573 4.536-5.391c9.928 6.048 14.4 19.182 10.387 31.231Z" fill="#fff" fill-rule="evenodd" data-name="Path 2294"/></g></svg>