<svg xmlns="http://www.w3.org/2000/svg" width="131.113" height="132.063" viewBox="0 0 131.113 132.063">
  <g id="Group_1979" data-name="Group 1979" transform="translate(-374 -456)">
    <path id="Path_3873" data-name="Path 3873" d="M23.752,0h83.608a23.752,23.752,0,0,1,23.752,23.752v84.558a23.752,23.752,0,0,1-23.752,23.752H23.752A23.752,23.752,0,0,1,0,108.311V23.752A23.752,23.752,0,0,1,23.752,0Z" transform="translate(374 456)" fill="#0a3133"/>
    <g id="gtg-logo" transform="translate(403.362 485.705)">
      <path id="Path_2294" data-name="Path 2294" d="M995.018,971.795,943.75,928.759c8.026-4.935,15.753-5.914,25.881-3.4l-2.639,4.318a17.364,17.364,0,0,0-12.094,1.163L991.5,961.574a31.671,31.671,0,0,0-8.665-22.986l-3.318,2.926-3.925-3.349,5.9-7.016C994.42,939.021,1000.241,956.114,995.018,971.795Z" transform="translate(-924.537 -924.023)" fill="#fff"/>
      <path id="Path_2295" data-name="Path 2295" d="M977.965,991.752c-13.044,6.769-28.684,5.152-39.234-3.616-12.292-10.3-15.774-23.336-12.425-39.625L940.019,960l-3.029,4.224-6.11-4.389c-1.968,17.8,17,33.876,35.473,29.631L952.238,977.5l-2.762,2.872-5.233-4.6,6.017-7.212Z" transform="translate(-925.102 -923.281)" fill="#fff"/>
      <path id="Path_2296" data-name="Path 2296" d="M990.542,982.034l-3.616,4.059-51.62-43.208a19.693,19.693,0,0,0-4,7.269l-4.065-3.359a60.141,60.141,0,0,1,6.379-9.358,49.2,49.2,0,0,1,7.889-7.165l3.986,3.107a35.831,35.831,0,0,0-6.615,5.256Z" transform="translate(-924.708 -924.227)" fill="#fff"/>
    </g>
  </g>
</svg>
