<svg xmlns="http://www.w3.org/2000/svg" width="20" height="22.069" viewBox="0 0 20 22.069">
  <path id="bell_1_" data-name="bell (1)" d="M20.817,12.561,19.07,6.276a8.57,8.57,0,0,0-16.622.436L1.1,12.794a4.6,4.6,0,0,0,4.488,5.595H6.607a4.6,4.6,0,0,0,9.01,0h.77a4.6,4.6,0,0,0,4.43-5.827Zm-9.7,7.666a2.758,2.758,0,0,1-2.589-1.839H13.7a2.758,2.758,0,0,1-2.589,1.839Zm7.471-4.767a2.737,2.737,0,0,1-2.2,1.09H5.583a2.758,2.758,0,0,1-2.692-3.357L4.243,7.11A6.731,6.731,0,0,1,17.3,6.768l1.747,6.285a2.737,2.737,0,0,1-.462,2.407Z" transform="translate(-0.986 -0.002)"/>
</svg>
