<svg xmlns="http://www.w3.org/2000/svg" width="67.999" height="67" viewBox="19509 -4586 67.999 67"><g data-name="CompositeLayer"><path d="M19527-4552.5c0-8.56 6.94-15.5 15.501-15.5 1.44 0 2.835.196 4.157.564l.058-.03c.007.01.015.028.027.054 6.5 1.845 11.257 7.823 11.257 14.912 0 8.56-6.939 15.5-15.499 15.5-8.561 0-15.501-6.94-15.501-15.5Zm15.501 12.973c.767 0 1.519-.067 2.25-.195a34.654 34.654 0 0 0 2.48-6.628h-8.524a34.444 34.444 0 0 0 2.55 6.764c.409.04.824.06 1.244.06Zm-4.368-.756a36.13 36.13 0 0 1-2.033-6.067h-5.02a13.046 13.046 0 0 0 7.053 6.067Zm9.873-.47a13.06 13.06 0 0 0 5.916-5.597h-4.084a36.06 36.06 0 0 1-1.832 5.596Zm6.953-8.125c.336-1.15.515-2.365.515-3.622 0-1.135-.147-2.236-.421-3.285h-4.72c.156 1.132.248 2.289.248 3.44 0 1.178-.097 2.342-.26 3.467h4.638Zm-7.196 0c.181-1.125.29-2.292.29-3.468 0-1.143-.104-2.303-.277-3.44h-9.614a22.962 22.962 0 0 0-.277 3.44c0 1.176.11 2.343.29 3.468h9.588Zm-12.146 0a24.344 24.344 0 0 1-.26-3.468c0-1.15.093-2.307.25-3.44h-5.658a12.952 12.952 0 0 0-.422 3.286c0 1.257.18 2.472.515 3.622h5.575Zm18.48-9.435a13.058 13.058 0 0 0-5.986-5.883 42.777 42.777 0 0 1 1.768 5.883h4.218Zm-6.816 0c-.704-2.962-1.722-5.537-2.325-6.927a12.992 12.992 0 0 0-3.908-.152c-.59 1.349-1.66 4.005-2.39 7.08h8.623Zm-11.222 0c.544-2.478 1.309-4.715 1.95-6.358a13.047 13.047 0 0 0-7.105 6.359h5.155Z" fill="#1b8186" fill-rule="evenodd" data-name="Union 66"/><path d="M19524-4586h38a15 15 0 0 1 15 15v37a15 15 0 0 1-15 15h-38a15 15 0 0 1-15-15v-37a15 15 0 0 1 15-15z" fill="#f7f7f8" fill-rule="evenodd" data-name="Rectangle 2862"/></g></svg>