<svg xmlns="http://www.w3.org/2000/svg" width="68" height="67" viewBox="0 0 68 67">
  <g id="Group_2807" data-name="Group 2807" transform="translate(0.26 -0.476)">
    <rect id="Rectangle_2862" data-name="Rectangle 2862" width="68" height="67" rx="15" transform="translate(-0.26 0.476)" fill="#f7f7f8"/>
    <path id="Union_66" data-name="Union 66" d="M0,15.5A15.514,15.514,0,0,1,19.658.564l.058-.029c.006.01.015.028.027.053A15.5,15.5,0,1,1,0,15.5ZM15.5,28.473a13.01,13.01,0,0,0,2.25-.2,34.654,34.654,0,0,0,2.48-6.628H11.707a34.444,34.444,0,0,0,2.549,6.764Q14.87,28.473,15.5,28.473Zm-4.368-.757A36.129,36.129,0,0,1,9.1,21.65H4.08A13.046,13.046,0,0,0,11.133,27.717Zm9.873-.47a13.061,13.061,0,0,0,5.915-5.6H22.838A36.06,36.06,0,0,1,21.006,27.246Zm6.953-8.124a13.01,13.01,0,0,0,.093-6.907h-4.72a25.262,25.262,0,0,1,.248,3.44,24.344,24.344,0,0,1-.259,3.468Zm-7.2,0a21.836,21.836,0,0,0,.291-3.468,22.962,22.962,0,0,0-.277-3.44H11.162a22.962,22.962,0,0,0-.277,3.44,21.836,21.836,0,0,0,.291,3.468Zm-12.146,0a24.344,24.344,0,0,1-.259-3.468,25.262,25.262,0,0,1,.248-3.44H2.949a13.01,13.01,0,0,0,.093,6.907ZM27.1,9.688A13.058,13.058,0,0,0,21.111,3.8a42.777,42.777,0,0,1,1.768,5.883Zm-6.816,0A42.962,42.962,0,0,0,17.956,2.76a13.073,13.073,0,0,0-3.908-.152,43.137,43.137,0,0,0-2.39,7.079Zm-11.222,0A43.283,43.283,0,0,1,11.01,3.329,13.047,13.047,0,0,0,3.9,9.688Z" transform="translate(17.74 18.476)" fill="#1b8186"/>
  </g>
</svg>
