<svg xmlns="http://www.w3.org/2000/svg" width="70" height="69" viewBox="0 0 70 69">
  <g id="Group_2808" data-name="Group 2808" transform="translate(-357 -538)">
    <rect id="Rectangle_3343" data-name="Rectangle 3343" width="70" height="69" rx="12" transform="translate(357 538)" fill="#f9fafc"/>
    <path id="Path_3933" data-name="Path 3933" d="M18.442,0h-.154a2.4,2.4,0,0,0-2.306,1.82,2.376,2.376,0,0,1-4.583,0A2.4,2.4,0,0,0,9.094,0H8.939A5.947,5.947,0,0,0,3,5.939V24.946a3.564,3.564,0,0,0,3.564,3.564h2.53a2.4,2.4,0,0,0,2.306-1.82,2.376,2.376,0,0,1,4.583,0,2.4,2.4,0,0,0,2.306,1.82h2.53a3.564,3.564,0,0,0,3.564-3.564V5.939A5.947,5.947,0,0,0,18.442,0Zm2.376,26.133-2.546-.075a4.752,4.752,0,0,0-9.179.075H6.564a1.188,1.188,0,0,1-1.188-1.188V20.194H7.752a1.188,1.188,0,0,0,0-2.376H5.376V5.939A3.564,3.564,0,0,1,8.939,2.376l.17.075a4.763,4.763,0,0,0,4.582,3.489,4.836,4.836,0,0,0,4.624-3.564h.127a3.564,3.564,0,0,1,3.564,3.564V17.818H19.63a1.188,1.188,0,0,0,0,2.376h2.376v4.752A1.188,1.188,0,0,1,20.818,26.133Z" transform="translate(378.212 558.142)"/>
  </g>
</svg>
