<svg xmlns="http://www.w3.org/2000/svg" width="379.279" height="254" viewBox="0 0 379.279 254">
  <g id="Group_2032" data-name="Group 2032" transform="translate(-1.88)">
    <g id="Group_755" data-name="Group 755" transform="translate(310.134 0) rotate(12)">
      <path id="Path_22" data-name="Path 22" d="M11.541,0S23.286,16.4,23.286,29.805s-9.06,23.977-9.06,23.977S0,41.293,0,27.886,11.541,0,11.541,0Z" transform="matrix(0.927, 0.375, -0.375, 0.927, 27.53, 0)" fill="#b3e689"/>
      <path id="Path_28" data-name="Path 28" d="M4.4,0S8.869,11.693,8.869,21.254a45.4,45.4,0,0,1-3.451,17.1S0,29.446,0,19.885,4.4,0,4.4,0Z" transform="matrix(0.848, -0.53, 0.53, 0.848, 0, 58.387)" fill="#b3e689"/>
      <path id="Path_29" data-name="Path 29" d="M3,0S6.06,7.989,6.06,14.521A31.018,31.018,0,0,1,3.7,26.2S0,20.118,0,13.586,3,0,3,0Z" transform="translate(1.474 73.808) rotate(-50)" fill="#a1cf7b"/>
      <path id="Path_23" data-name="Path 23" d="M20.738,0s7.579,19.558,6.76,36.893S12.335,62.361,12.335,62.361.429,49.157.006,31.844,20.738,0,20.738,0Z" transform="translate(51.672 1.527) rotate(29)" fill="#b3e689"/>
      <path id="Path_24" data-name="Path 24" d="M.486,62.564a.486.486,0,0,1-.466-.625,93.222,93.222,0,0,1,4.1-10.513A115.543,115.543,0,0,1,9.546,40.915,100.651,100.651,0,0,1,17.5,29.208,129.209,129.209,0,0,1,27.534,18.069c3.07-3.061,6.441-6.18,10.02-9.272C43.647,3.534,48.3.127,48.344.094a.486.486,0,0,1,.573.785C48.871.912,44.247,4.3,38.181,9.54c-3.56,3.076-6.913,6.179-9.966,9.222a128.229,128.229,0,0,0-9.957,11.05,99.668,99.668,0,0,0-7.867,11.583A114.56,114.56,0,0,0,5.015,51.809,92.316,92.316,0,0,0,.952,62.217.486.486,0,0,1,.486,62.564Z" transform="matrix(0.978, -0.208, 0.208, 0.978, 10.491, 31.062)" fill="#fff"/>
      <path id="Path_25" data-name="Path 25" d="M.976,71.573a.486.486,0,0,1-.481-.42C.488,71.1.311,69.8.17,67.573a89.551,89.551,0,0,1-.1-9.17A81.558,81.558,0,0,1,1.522,45.9,59.962,59.962,0,0,1,5.837,32.339c2.511-5.408,5.482-11.078,8.831-16.853C19.9,6.465,24.3.266,24.344.2a.486.486,0,0,1,.792.564c-.044.061-4.42,6.227-9.628,15.207-3.334,5.749-6.292,11.393-8.79,16.774A58.983,58.983,0,0,0,2.478,46.081a80.561,80.561,0,0,0-1.431,12.34,88.591,88.591,0,0,0,.092,9.071c.139,2.2.318,3.515.32,3.528a.487.487,0,0,1-.482.552Z" transform="matrix(0.978, -0.208, 0.208, 0.978, 8.336, 22.096)" fill="#fff"/>
      <path id="Path_26" data-name="Path 26" d="M18.78.631A78.371,78.371,0,0,1,20.3,18.594C19.479,35.929,5.135,44.062,5.135,44.062S.423,43.885,0,26.572c1.909-9.9,6.361-10.358,11.3-13.542C15.619,10.077,18.088-3,18.78.631Z" transform="translate(49.097 21.023) rotate(29)" opacity="0.103"/>
      <path id="Path_27" data-name="Path 27" d="M11.285,19.081A54.6,54.6,0,0,1,.127,4.681c-1-1.971,4.168-7.528,7.621-2.864.095.128,6.328,5.21,6.455,5.451C16.246,11.105,11.285,19.081,11.285,19.081Z" transform="matrix(0.927, 0.375, -0.375, 0.927, 17.257, 33.276)" opacity="0.095"/>
    </g>
    <g id="Group_756" data-name="Group 756" transform="translate(0 39.731) rotate(-9)">
      <path id="Path_22-2" data-name="Path 22" d="M9.314,43.4s9.479-13.234,9.479-24.054S11.481,0,11.481,0,0,10.079,0,20.9,9.314,43.4,9.314,43.4Z" transform="translate(55.197 40.244) rotate(158)" fill="#b3e689"/>
      <path id="Path_28-2" data-name="Path 28" d="M3.548,30.952s.208-.544.554-1.564c.971-2.867,3.057-9.725,3.057-15.589A36.641,36.641,0,0,0,4.373,0S0,7.187,0,14.9c0,5.617,1.88,11.561,2.938,14.475C3.285,30.335,3.548,30.952,3.548,30.952Z" transform="matrix(-0.848, -0.53, 0.53, -0.848, 44.753, 73.37)" fill="#b3e689"/>
      <path id="Path_29-2" data-name="Path 29" d="M2.424,21.147S4.89,14.7,4.89,9.428A25.034,25.034,0,0,0,2.988,0,22.415,22.415,0,0,0,0,10.182,32.844,32.844,0,0,0,2.424,21.147Z" transform="translate(43.766 73.16) rotate(-130)" fill="#a1cf7b"/>
      <path id="Path_23-2" data-name="Path 23" d="M16.737,50.329s6.117-15.784,5.456-29.775S9.955,0,9.955,0,.346,10.656.005,24.629,16.737,50.329,16.737,50.329Z" transform="matrix(-0.875, 0.485, -0.485, -0.875, 43.854, 45.251)" fill="#b3e689"/>
      <path id="Path_24-2" data-name="Path 24" d="M39.341,50.68a.484.484,0,0,1-.286-.094c-.037-.027-3.794-2.779-8.714-7.03-2.89-2.5-5.612-5.016-8.091-7.487a104.373,104.373,0,0,1-8.108-9,81.326,81.326,0,0,1-6.424-9.459A93.344,93.344,0,0,1,3.335,9.122,75.34,75.34,0,0,1,.02.625.486.486,0,0,1,.952.347h0A74.434,74.434,0,0,0,4.228,8.738a92.362,92.362,0,0,0,4.334,8.4,80.342,80.342,0,0,0,6.34,9.335,103.391,103.391,0,0,0,8.028,8.909c2.462,2.454,5.166,4.957,8.037,7.438,4.892,4.227,8.623,6.96,8.66,6.987a.486.486,0,0,1-.287.878Z" transform="matrix(-0.978, -0.208, 0.208, -0.978, 42.263, 74.569)" fill="#fff"/>
      <path id="Path_25-2" data-name="Path 25" d="M20.061,57.951a.485.485,0,0,1-.4-.2c-.035-.05-3.59-5.057-7.815-12.341-2.7-4.663-5.1-9.241-7.131-13.608A48.486,48.486,0,0,1,1.23,20.828a65.916,65.916,0,0,1-1.17-10.1A72.368,72.368,0,0,1,.137,3.316C.252,1.514.395.464.4.42a.486.486,0,0,1,.963.132h0a64.075,64.075,0,0,0-.332,10.156,64.918,64.918,0,0,0,1.154,9.943A47.506,47.506,0,0,0,5.6,31.387c2.015,4.341,4.4,8.893,7.09,13.53,4.2,7.246,7.73,12.216,7.765,12.265a.486.486,0,0,1-.4.768Z" transform="matrix(-0.978, -0.208, 0.208, -0.978, 42.491, 74.444)" fill="#fff"/>
      <path id="Path_26-2" data-name="Path 26" d="M15.157,35.051a63.249,63.249,0,0,0,1.225-14.5C15.72,6.564,4.144,0,4.144,0S.341.143,0,14.115C1.54,22.1,5.134,22.475,9.116,25.044,12.605,27.428,14.6,37.98,15.157,35.051Z" transform="matrix(-0.875, 0.485, -0.485, -0.875, 38.771, 48.068)" opacity="0.103"/>
      <path id="Path_27-2" data-name="Path 27" d="M9.03,0A44.066,44.066,0,0,0,.025,11.622c-.4.781,4.03,1.515,6.387-1.592C8.751,6.945,9.03,0,9.03,0Z" transform="translate(52.925 41.162) rotate(158)" opacity="0.095"/>
    </g>
    <path id="Subtraction_37" data-name="Subtraction 37" d="M172.815,204.177c-2.932,0-5.879-.021-8.759-.064l182.518-60.77-1.113,1.05-.98.925c-1.664,1.571-3.164,2.985-4.661,4.413-5.716,5.371-10.157,9.373-14.4,12.973a193.937,193.937,0,0,1-15.429,11.915l-80.371,26.846c-5.313.6-10.93,1.1-16.695,1.493-5.538.375-11.373.659-17.341.844C187.455,204.054,180.007,204.177,172.815,204.177Zm-26.853-.657h0c-8.733-.451-17.2-1.154-25.181-2.089-8.587-1.007-16.921-2.322-24.772-3.907-8.232-1.619-16.273-3.592-23.9-5.866a204.29,204.29,0,0,1-22.042-7.909,138.182,138.182,0,0,1-19.009-9.831,82.07,82.07,0,0,1-14.8-11.633,59.016,59.016,0,0,1-4.828-5.548,54.942,54.942,0,0,1-3.886-5.813l138.026-43.1,142.316,48.44Zm151.766-50.531h0L38.675,64.817,201.792,16.1l-.024-.136,159.6,57.266a75.451,75.451,0,0,1,10.358,15,35.516,35.516,0,0,1,2.767,7.448,24.27,24.27,0,0,1,.648,7.4,26.38,26.38,0,0,1-1.782,7.613,42.27,42.27,0,0,1-3.937,7.556,98.065,98.065,0,0,1-12.512,15.03ZM4.682,145.226h0a55.862,55.862,0,0,1-3.176-9.858,63.328,63.328,0,0,1-1.393-10.16,76.006,76.006,0,0,1,.14-10.3,93.563,93.563,0,0,1,1.423-10.283c.546-2.978,1.217-5.893,1.995-8.664a83.446,83.446,0,0,1,2.841-8.417,73.977,73.977,0,0,1,3.8-8.072,68.013,68.013,0,0,1,4.859-7.631l13.142-3.925,107.164,36.473L4.682,145.226Zm18.4-82.331h0a68.977,68.977,0,0,1,5.749-4.851A74.61,74.61,0,0,1,35.4,53.625a98.788,98.788,0,0,1,10.839-5.681c3.68-1.671,7.689-3.285,12.255-4.936L179.6,8.013l12.383,4.443L28.383,61.314l-.35-.121-.047.238Zm328.25-.51L186.615,3.28c4.738-.963,9.237-1.679,13.754-2.192a162.08,162.08,0,0,1,19-1.088c5.863,0,11.876.3,17.874.883,5.9.577,11.824,1.436,17.615,2.556,5.751,1.11,11.412,2.486,16.824,4.086a153.072,153.072,0,0,1,15.5,5.48c3,1.28,5.98,2.687,8.869,4.183,2.756,1.427,5.517,2.983,8.206,4.625a148.608,148.608,0,0,1,14.769,10.333,287.344,287.344,0,0,1,25.35,23.272c2.269,2.246,4.681,4.644,6.955,6.965Z" transform="translate(3.104 49.823)" fill="#1b8186"/>
    <g id="Group_2019" data-name="Group 2019" transform="translate(133.198 0)">
      <g id="Bottom" transform="translate(0 101.645)">
        <path id="Path_8" data-name="Path 8" d="M42.4.323C61.465,1.6,72.67,3.379,72.67,7.228s-16.515,6.023-37.38,4.889c-9.89-.538-16.423-1.3-22.29-1.873C6.564,9.617,1.271,9.14,0,7.577,0,4.821,8.637,1.3,20.63.164,25.345-.282,36.768.323,42.4.323Z" transform="translate(1.513 83.667) rotate(7)" opacity="0.153"/>
        <path id="legs" d="M12.642,11.482,32.336,2.675,62.436,0a50.672,50.672,0,0,1,3.981,5.208c1.776,2.626,3.9,6.4,7.108,10.556,2.769,3.066,8.393,5.619,11.4,9.031,5.159,5.845,9.344,11.776,14.237,16.9,1.725,1.808,3.856,2.7,5.391,4.262,7.215,3.642,9.127,5.165,10.1,6.531,3.617,5.06.532,7.452.532,7.452a6.547,6.547,0,0,1-7.222,2.182c-2.274-.626-6.344-4.573-8.362-7.293-3.354-1.275-5.648-1.395-7.693-2.686-1.558-2.244-1.567-5.416-2.613-7.264a9.18,9.18,0,0,0-4.373-4.05,65.821,65.821,0,0,1-9.014-4.78c-3.108-2.2-1.829-3.349-6.992-7.19s-5.45-3.36-13.657-8.175S41.572,10.192,36.095,9.6c-1.1-.119-3.52,7.937-6.246,14.271s-6.264,15.681-6.264,15.681.326.485-1.491,13.719c-.613,4.46-2.878,10.574-3.747,16.471-.738,5-1.529,7.017-.968,14.02-.4,5.144-1.065,8.726-1.065,8.726s-6.132,1.057-8.01,0c-2.231-1.167-2.31-4.074-3.15-4.568C2.2,86.182,1,86.3.385,85.59s-.71-4.037,1.347-6.049a10.015,10.015,0,0,1,5.494-2.9c1.3-.674,1.431-1.231,1.431-1.231S7.325,58.335,8.3,49.775A123.049,123.049,0,0,1,12.642,30.6a90.242,90.242,0,0,1-.663-9.925A70.177,70.177,0,0,1,12.642,11.482Z" transform="translate(25.97 2.005)" fill="#d6866f"/>
        <path id="sock_left" data-name="sock left" d="M19.655,3.146a63.052,63.052,0,0,0-1.309,6.247c-.448,3.038-.916,4.973-1.092,7.652a43.386,43.386,0,0,0,.124,6.368c-.4,5.144-1.065,8.726-1.065,8.726s-6.132,1.057-8.01,0c-2.231-1.167-2.31-4.074-3.15-4.568C2.2,25.829,1,25.942.385,25.237s-.71-4.037,1.347-6.049a10.014,10.014,0,0,1,5.494-2.9c1.3-.675,1.34-1.063,1.34-1.063S8.111,8.065,7.974.718C8.093-.441,12.389.056,14.406.462S19.811,2.048,19.655,3.146Z" transform="translate(25.97 62.358)" fill="#fff"/>
        <g id="Stripes_left" data-name="Stripes left" transform="translate(33.987 64.869)">
          <path id="Path_4" data-name="Path 4" d="M0,.08A23.514,23.514,0,0,1,6.023.358,18.154,18.154,0,0,1,11.2,2.414l-.287,1.228A16.306,16.306,0,0,0,5.848,1.5,19.5,19.5,0,0,0,.038,1.369Z" transform="translate(0 0)" fill="#b3e689"/>
          <path id="Path_5" data-name="Path 5" d="M0,.078A22.48,22.48,0,0,1,5.877.359a15.4,15.4,0,0,1,4.814,1.9L10.456,3.5A14.216,14.216,0,0,0,5.7,1.5a18.517,18.517,0,0,0-5.665-.13Z" transform="translate(0.073 2.142)" fill="#b3e689"/>
        </g>
        <path id="shoe_left" data-name="shoe left" d="M17.378,10.5c-.4,5.144-1.065,8.726-1.065,8.726s-6.132,1.057-8.01,0c-2.231-1.167-2.31-4.074-3.15-4.568C2.2,12.919,1,13.032.385,12.327S-.325,8.29,1.732,6.278a10.014,10.014,0,0,1,5.494-2.9c1.3-.674,1.431-1.231,1.431-1.231A3.538,3.538,0,0,1,11.983.012c2.334.195,1.732,2.942,2.242,3.371s.473,0,1.251,0a6.649,6.649,0,0,1,1.9.442S16.817,3.5,17.378,10.5Z" transform="translate(25.97 75.269)" fill="#898383"/>
        <path id="shoe_sole_left" data-name="shoe sole left" d="M13.3,7c.751,1.023.181,1.161,1.1,1.886A6.923,6.923,0,0,0,16.968,9.9l-.655,4.568s-6.132,1.057-8.01,0C6.072,13.3,5.993,10.392,5.153,9.9,2.2,8.156,1,8.27.385,7.564s-.71-4.037,1.347-6.049A6.7,6.7,0,0,1,6.383.013c1.461.107,5.009,4.777,5.009,4.777A25.232,25.232,0,0,1,13.3,7Z" transform="translate(25.97 80.031)" fill="#08141c"/>
        <path id="shoe_sole_2_left" data-name="shoe sole 2 left" d="M1.089.469c.751,1.023.181,1.161,1.1,1.886A6.922,6.922,0,0,0,4.759,3.37L4.1,7.939a2.753,2.753,0,0,0-1.713-2.5C.161,4.273.359,4.332.1,3.712S.081-.817.85.154C.906.225,1,.348,1.089.469Z" transform="translate(38.178 86.559)" fill="#fff"/>
        <path id="shadow_left_leg" data-name="shadow left leg" d="M4.7,3.913,14.149,0s.85,1.632.569,5.9a91.849,91.849,0,0,1-2.092,12.6c-.968,4.8-1.93,3.9-1.678,6.988s3.542,2.388,3.771,5.375-2.479,6.442-3.852,10.082-1.154,3.618-2.61,7.529S4.7,65.789,4.7,65.789a3.314,3.314,0,0,0-2.21.145A5.51,5.51,0,0,0,.712,67.845S-.619,50.766.359,42.206A123.048,123.048,0,0,1,4.7,23.036a90.24,90.24,0,0,1-.663-9.925A70.174,70.174,0,0,1,4.7,3.913Z" transform="translate(33.914 9.574)" opacity="0.3"/>
        <path id="sock_right" data-name="sock right" d="M8.033.036c4.756,5.6,9.969,11.91,10.1,12.036,1.6,1.515,3.535,2.389,4.958,3.834,7.215,3.642,9.127,5.165,10.1,6.531,3.617,5.06.532,7.452.532,7.452a6.547,6.547,0,0,1-7.222,2.182c-2.274-.626-6.344-4.572-8.362-7.293C14.79,23.5,12.5,23.384,10.451,22.093,9.377,20.544,9.039,18.554,8.572,16.8a8.5,8.5,0,0,0-.734-1.97,9.18,9.18,0,0,0-4.373-4.05S1.994,10.136.075,9.19c-.77-.38,4.559-.792,6.549-3.081S7.811-.433,8.033.036Z" transform="translate(107.434 32.061)" fill="#fff"/>
        <g id="Stripes_right" data-name="Stripes right" transform="translate(110.858 33.948)">
          <path id="Path_6" data-name="Path 6" d="M.453.863A7.709,7.709,0,0,1,5.481.151a18.68,18.68,0,0,1,4.653,1.588s-.067.285-.123.582-.1.6-.1.6a17.519,17.519,0,0,0-4.6-1.636A8.166,8.166,0,0,0,0,2.319Z" transform="matrix(-0.545, 0.839, -0.839, -0.545, 9.994, 3.476)" fill="#b3e689"/>
          <path id="Path_7" data-name="Path 7" d="M.389.927A10.013,10.013,0,0,1,6.021.145a11.182,11.182,0,0,1,4.434,1.908s.007.293.04.6.093.632.093.632a14.044,14.044,0,0,0-4.743-2A10.774,10.774,0,0,0,0,2.212Z" transform="matrix(-0.545, 0.839, -0.839, -0.545, 8.524, 1.791)" fill="#b3e689"/>
        </g>
        <path id="shoe_right" data-name="shoe right" d="M9.23.01c-.08.257,3.856,2.7,5.391,4.262,7.215,3.642,9.127,5.165,10.1,6.531,3.617,5.06.532,7.452.532,7.452a6.547,6.547,0,0,1-7.222,2.182c-2.274-.626-6.344-4.572-8.362-7.293C6.319,11.869,4.025,11.75,1.98,10.459.832,8.8.525,6.647.007,4.826-.085,4.5.745,4.52,3.649,6.651a3.646,3.646,0,0,0,2.531.183c.221-.129-.238-1.363,0-2.008s1.281-1.52,2.145-2.9A8.76,8.76,0,0,0,9.23.01Z" transform="translate(115.906 43.695)" fill="#898383"/>
        <path id="shadow_right_leg" data-name="shadow right leg" d="M3.084.007A19.736,19.736,0,0,1,12.45,2.414c5.165,2.668,5.048,3.258,11.294,8.264S35.187,20.5,37.434,22.435,43.5,23.69,47.74,28.45s2.59,8.371,6.643,13.024,6.426,2.626,9.571,5.588c2.592,2.441.589,4.093,3.008,6.042s6.668,1.755,6.668,1.755a6.547,6.547,0,0,1-7.222,2.182c-2.274-.626-6.344-4.572-8.362-7.293-3.354-1.276-5.648-1.395-7.693-2.686C48.8,44.818,48.787,41.646,47.74,39.8a9.18,9.18,0,0,0-4.373-4.05,65.818,65.818,0,0,1-9.014-4.78c-3.108-2.2-1.829-3.349-6.992-7.19S21.912,20.419,13.7,15.6C8.148,12.343,3.946,8.75,0,6.52c0,0,1.042-2.665,1.741-4.123A19.26,19.26,0,0,1,3.084.007Z" transform="translate(67.532 7.092)" opacity="0.296"/>
        <path id="pants" d="M1.119,25.593C-.421,23.391.077,9.583.077,9.583l22.508-4.9L51.349,0s7.9,6.988,8.473,9.583-.939,3.169-4.243,6.992-5.989,8.606-8.972,8.3S28.278,11.717,26.476,11.524c0,0-4.51,15.631-6.572,17.205S2.659,27.795,1.119,25.593Z" transform="translate(35.721 0)" fill="#b3e689"/>
      </g>
      <g id="arm_left" data-name="arm left" transform="translate(42.366 66.061)">
        <path id="arm_left-2" data-name="arm left" d="M10.917.074a33.542,33.542,0,0,0,6.767,4.957A21.5,21.5,0,0,0,24.708,7.1l3.66.926L39.006,9.2s2.263-1.332,3.858-2.1,4.456-.137,5.608.359,1.938,2.74.8,4.986-1.937,3.762-3.735,4.072-2.071-.027-3.7.133-1.694.024-5.059.151-8.4.358-8.4.358-9.841-.12-16.228,0c-2.146.04-4.534-1.887-6.389-3.143A30.666,30.666,0,0,1,.023,9.006S-.391,4.026,2.27,1.745,10.917.074,10.917.074Z" transform="translate(0 0)" fill="#ac6754" opacity="0.998"/>
        <path id="wrist_band" data-name="wrist band" d="M2.175,0,12.814,1.172a10.708,10.708,0,0,0-1.776,3.6,10.66,10.66,0,0,0,0,4.012l-8.862.344L.681,9.117a10.607,10.607,0,0,1-.6-4.781A10.566,10.566,0,0,1,2.175,0Z" transform="translate(26.192 8.025)" fill="#fff"/>
        <path id="shadow_left_arm" data-name="shadow left arm" d="M41.829,13.554c-1.631.16-1.694.024-5.059.151s-8.4.358-8.4.358-9.841-.12-16.228,0C9.992,14.1,7.6,12.176,5.75,10.92A30.666,30.666,0,0,1,.023,5.91,11.8,11.8,0,0,1,1.167,0S4.522,7.211,11.181,9.732,42.638,13.474,41.829,13.554Z" transform="translate(0.001 3.095)" opacity="0.303"/>
      </g>
      <path id="arm_right" data-name="arm right" d="M4.977,19.553a5.005,5.005,0,0,0,2.484-.635c1.078-.455,2.606-1.54,4.974-2.479,6.087-2.415,16.892-6.546,16.892-6.546s3.011-6.2,6.211-8.015,7.331-2.4,9.774-1.372.246,3.273,0,5.5.7,2.294-.985,3.4-1.128-.415-5.739,1.025S16.738,27.937,13.816,28.635s-3.006.419-5.767.478S0,32.565,0,32.565L3.855,24Z" transform="translate(64.282 23.53)" fill="#ac6754" opacity="0.999"/>
      <path id="shadow_right_arm" data-name="shadow right arm" d="M27.822,8.226s3.011-6.2,6.211-8.015S26.454,8.8,28.9,9.836c.606.256,4.146.134,0,4.417-1.115,1.152-3.09,2.416-4.988,4.044-4.753,3.888-9.991,8.288-11.6,8.672-2.922.7-3.006.419-5.767.478-1.8.039-4.666,1.49-6.5,2.527a2.439,2.439,0,0,1,1.068-2.527,52.879,52.879,0,0,0,5.1-4.708s1.563-3.627,3.465-5.116C16.619,12.185,27.822,8.226,27.822,8.226Z" transform="translate(65.786 25.196)" opacity="0.298"/>
      <path id="Shirt" d="M12.105.965h.176L11.116,4.7S13.278,6.218,17.037,8.3c1.662.918,3.969,1.6,6.248,2.776a9.334,9.334,0,0,1,2.868,1.943s-1.821-5.335-.8-6.174A14.465,14.465,0,0,0,29.675,0s7.287.2,9.584,0C40.392-.1,38.9,3.8,38,6.84a23.47,23.47,0,0,1-2.327,5.3l-1.394.871a19.676,19.676,0,0,0,1.669,4.966,8.8,8.8,0,0,1,0,6.4l1.122,5.695a29.751,29.751,0,0,1-6.9-2.426,44.776,44.776,0,0,1-6.892-4.58s-4.741.171-7.414,2.312-3.463,6.643-3.463,6.643a32.569,32.569,0,0,0,3.463,3.346c2.128,1.787,5.047,3.8,5.047,3.8s1.354,1.046,6.293.964,13.522,0,13.522,0,3.494,4.342,5.69,7.285,1.154,2.532,3.1,4.484,2.095,1.063,4.671,3.325,6.855,3.928,5.634,5.723-5.6,4.974-13.4,5.724S36.213,63.79,28.751,64.566,14.925,70.927,8.238,72.984s-5.386.755-6.355-.8,1.645-2.98,2.478-5.422-.116-2.375.853-4.347,3.238-1.881,3.024-3.538-3.878.4-3.878-3.089,3.39-6.533,3.878-10.861-.559-2.737-1.927-6.45S4.292,35.03,2.684,30.119-.331,22.451.068,18.53s.29-3.949,2.259-7.622,5.01-5.944,5.426-6.772a10.081,10.081,0,0,1,.971-1.88A34.072,34.072,0,0,1,12.105.965Z" transform="translate(29.999 43.081)" fill="#fff"/>
      <g id="shadows_shirt" data-name="shadows shirt" transform="translate(30 50.377)">
        <path id="Path_9" data-name="Path 9" d="M4.054,3.575H2.895L0,0Z" transform="translate(8.624)" opacity="0.148"/>
        <path id="Path_10" data-name="Path 10" d="M3.752,2.9,2.65,3,0,0Z" transform="translate(14.413 4.932)" opacity="0.148"/>
        <path id="Path_11" data-name="Path 11" d="M8.4,8.834s-.159.583-.831-.407a15.875,15.875,0,0,1-1.5-3.346C5.607,3.861,5.716,3.55,5.716,3.55L4.164,2.441l-1.781.442L0,1.123,1.559,0l.825,1.309,2.692-.092,1.1,1.224V4.125Z" transform="translate(21.06 4.667)" opacity="0.148"/>
        <rect id="Rectangle_13" data-name="Rectangle 13" width="0.643" height="1.072" rx="0.322" transform="translate(26.838 4.075)" opacity="0.148"/>
        <path id="Path_12" data-name="Path 12" d="M1.024.19c.085-.084.265-.29.4-.132A12.293,12.293,0,0,1,1.35,2.29L.743,3.749V5.216A24.046,24.046,0,0,1,.209,7.694C.023,8.141,0,7,0,7V3.749A3.579,3.579,0,0,0,.743,2.355C1,1.465.938.275,1.024.19Z" transform="translate(27.596 1.263)" opacity="0.148"/>
        <path id="shadow_shirt_left" data-name="shadow shirt left" d="M28.751,46.036c-7.462.777-13.827,6.361-20.513,8.418s-5.386.755-6.355-.8,1.645-2.98,2.478-5.422-.116-2.375.853-4.347S8.451,42,8.238,40.347s-3.878.4-3.878-3.089S7.751,30.724,8.238,26.4s-.559-2.737-1.927-6.45S4.292,16.5,2.684,11.588-.331,3.921.068,0A29.894,29.894,0,0,0,5.214,9.008c1.659,2.018,4.727,2.622,6.793,5.422,2.407,3.263,9.471,6.592,13.684,12.879,1.84,2.752,7.123-1.246,9.4,1.319C37.184,34.709,31.2,45.781,28.751,46.036Z" transform="translate(0 11.234)" opacity="0.098"/>
      </g>
      <path id="Shadow_collar" data-name="Shadow collar" d="M1.638.676C3.1.151,3.576,0,3.576,0L2.387,3.752a10.979,10.979,0,0,1-1.283-1A6.99,6.99,0,0,1,0,1.361,7.58,7.58,0,0,1,1.638.676Z" transform="translate(38.719 43.984)" opacity="0.246"/>
      <path id="hair" d="M11.093,24.3s-3.151,3.581-7.332-2.686S-.335,14.645.366,12.6-.011,7.892,1.843,5.208,5.733,1.029,7.941.7A43.8,43.8,0,0,1,14.6.071c3.635-.131,6.774-.637,9.13,5.08s-4.175,7.272-4.1,8.635,2.119-.028,1.9,2.382S18.111,18.4,18.111,18.4l-6.75,4.935Z" transform="translate(39.397 20.23)" fill="#1f0909" opacity="0.996"/>
      <path id="face" d="M3.053,7.507A2.859,2.859,0,0,1,1.726,6.7a5.278,5.278,0,0,1-.689-2.61c-.13-1.662.61-3.053,1.416-3.038C2.978,1.1,4.807.361,4.5,4.219a1.8,1.8,0,0,0,1.484.214c.15-.21.041-1.076.041-1.076l2.2-2.291A21.366,21.366,0,0,1,14.147,0,25.376,25.376,0,0,1,20.43.857s.3.92-.269,4.031a55.827,55.827,0,0,1-1.583,6.229,16.582,16.582,0,0,1-1.691,3.849,16.3,16.3,0,0,1-2.739,3.159s-.428.545,0,2.617a25.042,25.042,0,0,0,.914,3.372,20.653,20.653,0,0,0-3.86-2.366,50.361,50.361,0,0,1-6.534-3.066A46.533,46.533,0,0,1,0,15.8s.94-3.193,1.726-5.238A30.021,30.021,0,0,1,3.053,7.507Z" transform="translate(41.097 31.966)" fill="#ac6754"/>
      <path id="headband" d="M5.023,1.294A19.8,19.8,0,0,1,10.975,0,20.794,20.794,0,0,1,17.1,1.041a9.811,9.811,0,0,1,1.077,2.748,8.772,8.772,0,0,1,0,2.852,20.624,20.624,0,0,0-7.717-.826A30.729,30.729,0,0,0,2.041,8.29,4.614,4.614,0,0,0,1.113,7.1,2.223,2.223,0,0,0,0,6.642,7.514,7.514,0,0,1,5.023,1.294Z" transform="translate(43.544 26.369)" fill="#fff"/>
      <path id="headband_shadow" data-name="headband shadow" d="M5.023,1.294A19.8,19.8,0,0,1,10.975,0c.225,0,.448.006.729.019,1.922.085-1.625,2-4.052,4.029C6.509,5,6.308,6.689,5.827,6.841A33.737,33.737,0,0,0,2.041,8.29,4.614,4.614,0,0,0,1.113,7.1,2.223,2.223,0,0,0,0,6.642,7.514,7.514,0,0,1,5.023,1.294Z" transform="translate(43.544 26.369)" opacity="0.147"/>
      <path id="Path_13" data-name="Path 13" d="M0,0A51.784,51.784,0,0,0,5.962,5.523a11.822,11.822,0,0,0,4.694,2.238S9.281,9.9,7.512,10.25.846,3.273,0,0Z" transform="translate(44.413 42.314)" opacity="0.147"/>
      <g id="Group_1491" data-name="Group 1491" transform="matrix(0.875, 0.485, -0.485, 0.875, 113.125, 0)">
        <path id="Path_14" data-name="Path 14" d="M6.308,14.236c-.361-1.458-.8-3.133-1.3-4.79a48.733,48.733,0,0,0-2.28-6.188c1.225.5,2.611,1.307,3.839,1.307l.185,0a8.48,8.48,0,0,0,3.176-.917A33.265,33.265,0,0,0,7.932,8.431c-.623,1.955-1.182,4.035-1.624,5.8M6.3,18.988s1.133-5.436,2.6-10.05A39.278,39.278,0,0,1,13.353,0S9.459,3.125,6.721,3.22c-.413.014-.869.352-1.433.244A15.89,15.89,0,0,1,0,.825a50.511,50.511,0,0,1,4.026,9.1C5.353,14.352,6.3,18.988,6.3,18.988Z" transform="matrix(0.999, -0.035, 0.035, 0.999, 7.956, 36.91)" fill="#151515"/>
        <rect id="Rectangle_2418" data-name="Rectangle 2418" width="1.912" height="14.529" transform="matrix(1, -0.017, 0.017, 1, 13.811, 50.875)" fill="#151515"/>
        <path id="Path_3123" data-name="Path 3123" d="M1.11,20.145a1.783,1.783,0,0,0,.938.127,1.881,1.881,0,0,0,.973-.18,2.7,2.7,0,0,0,.544-1.664c.09-4.419.346-17.326.281-17.745C3.768.176.274-.56.044.684c-.183.992.247,12.794.432,17.627A3.4,3.4,0,0,0,1.11,20.145Z" transform="translate(16.999 79.865) rotate(180)" fill="#0a3739"/>
        <path id="Intersection_1" data-name="Intersection 1" d="M13.729,38.733l-2.09,0,.024.734-.266.009-.025-.743-1.423,0q-.172-.126-.344-.266l1.76,0-.045-1.34L9.5,37.14l.04,1.27q-.137-.114-.274-.236l-.033-1.031-.981.009q-.116-.13-.23-.265l1.2-.011-.046-1.422-1.774.028.021.663q-.141-.185-.279-.374l-.009-.284-.193,0q-.093-.132-.184-.264l.368-.006L7.085,33.7,5.8,33.735l-.159-.263,1.433-.033L7.024,31.8l-1.8.034.027.977q-.143-.248-.28-.49l-.014-.482-.253,0-.145-.263.391-.007-.049-1.8-1.218.01q-.057-.13-.115-.266L4.9,29.5,4.85,27.844,3.1,27.88l.016.52q-.147-.378-.3-.781h.006l-.06-1.977-.623.01-.085-.266.7-.011L2.7,23.432l-1.211.02c-.024-.088-.048-.177-.072-.266l1.276-.021-.058-1.89L.974,21.3l0,.1q-.17-.747-.311-1.476l-.035-1.18-.175,0q-.022-.133-.043-.266l.21,0-.057-1.9-.4.006q-.014-.134-.027-.267l.42-.007L.487,13.924H0c0-.089,0-.178,0-.266H.48l-.06-2-.347,0Q.085,11.531.1,11.4l.316,0L.359,9.6h0q.1-.529.24-1.025l.022.758H2.276L2.224,7.623H.89c.031-.09.062-.179.094-.267H2.216L2.168,5.764l-.5,0c.046-.091.094-.18.142-.268l.347,0-.017-.565q.125-.2.255-.394l.029.956,1.809-.018L4.2,4.046l-1.25.013V3.806l.01-.012L4.188,3.78l-.024-.9.267-.007.024.9,1.66-.019L6.071,2.331l-1.062.03L5,2.093l1.061-.028-.023-.719.1-.049L6.3,1.219l.027.838,1.794-.049L8.078.6,8.345.594,8.39,2l1.774-.048L10.105.178,10.37.145l.059,1.8,2.087-.057L12.455.006,12.721,0l.062,1.881,2.275-.061L15.024.649,15.291.64l.033,1.172,2.2-.059-.018-.6.266-.009.019.6,1.933-.052L19.7,1.047c.091.038.182.078.271.118l.015.52.933-.026q.206.123.4.255L20,1.952l.048,1.656,1.972-.021L21.98,2.4q.139.113.274.23l.028.956.9-.01q.083.1.164.2l.052.065-1.111.012L22.333,5.3,24.1,5.284l-.014-.44q.2.339.384.7h-.095l.055,1.8H25.2q.042.132.082.267h-.837l.052,1.691,1.183,0q.024.133.047.267l-1.221,0,.049,1.625,1.377-.011c.008.088.015.178.022.267l-1.39.011.066,2.126,1.4,0c0,.089,0,.178,0,.267l-1.392,0,.064,2.084,1.24-.019q-.01.133-.02.267l-1.211.018.061,2,.941-.011q-.017.133-.035.268l-.9.01.067,2.181.484-.007q-.024.133-.049.268l-.426.007.056,1.806q-.115.516-.235,1.014l-.021-.666-1.8.03.058,1.966,1.428-.021q-.036.136-.072.268l-1.348.02.055,1.872.749-.015-.084.269-.656.013.051,1.782q-.129.359-.247.664l-.009-.316-1.985.016.048,1.641,1.4-.026-.119.269-1.273.024.046,1.584.476-.012q-.068.137-.135.269l-.333.008.017.6q-.127.236-.253.46l-.031-1.051-1.887.045.049,1.6,1.539-.026q-.082.137-.165.27L18.81,35.3l.046,1.486.276,0q-.108.138-.217.269h-.051l0,.059q-.128.153-.258.3l-.011-.353-2.246.021.042,1.4,1.1,0q-.174.139-.351.265l-.739,0,.013.455c-.058.031-.116.062-.174.091l-.089.044-.017-.59-2.138,0,.03.905-.266.009Zm.212-1.635.046,1.37,2.138,0-.042-1.395Zm-2.354.022.043,1.343,2.09,0L13.675,37.1ZM9.451,35.45,9.5,36.873l1.815-.016-.048-1.436Zm2.079-.034.048,1.438,2.088-.019-.048-1.451Zm2.354-.037.048,1.453,2.144-.021-.042-1.466ZM16.3,35.34l.043,1.469,2.246-.021L18.543,35.3ZM7.352,33.7,7.4,35.216l1.775-.028-.049-1.53Zm2.042-.048.049,1.532,1.812-.028-.051-1.545Zm2.076-.048.051,1.547,2.088-.034-.052-1.561Zm2.354-.055.052,1.563,2.148-.034L15.98,33.5Zm2.421-.057.046,1.581,2.243-.036-.049-1.6Zm-8.956-1.7.054,1.641,1.775-.042-.051-1.633Zm2.045-.039.051,1.632,1.811-.043-.054-1.623Zm2.075-.04.052,1.623,2.088-.048L13.5,31.675Zm2.354-.045.052,1.612,2.155-.049-.046-1.605Zm2.428-.046.046,1.6,2.24-.052-.049-1.595Zm2.5-.048.049,1.592,1.887-.043-.046-1.586ZM5.17,29.765l.049,1.8,1.8-.034-.058-1.782Zm2.054-.018.058,1.778,1.777-.033L9,29.731Zm2.045-.018.057,1.757,1.808-.034-.057-1.739Zm2.073-.019.058,1.738,2.087-.04-.057-1.716Zm2.355-.021.057,1.713,2.163-.04-.049-1.692Zm2.437-.022.049,1.689,2.238-.042-.051-1.666Zm2.5-.022.051,1.663,1.89-.036-.048-1.644ZM5.117,27.84,5.162,29.5l1.786-.015L6.894,27.8ZM7.161,27.8l.054,1.683,1.78-.016-.054-1.7Zm2.047-.042.054,1.707,1.806-.016-.057-1.726Zm2.069-.042.058,1.729,2.087-.018-.057-1.753Zm2.354-.047.058,1.756,2.172-.019-.052-1.779Zm2.445-.049.052,1.782,2.235-.019-.055-1.808Zm2.5-.049.055,1.809,1.894-.016-.052-1.832Zm2.163-.045.054,1.836,1.984-.018-.054-1.859Zm-17.7-1.886.06,1.975,1.75-.034-.054-1.966Zm2.021-.03.055,1.965,1.775-.036-.063-1.956Zm2.035-.03.063,1.953,1.78-.036-.061-1.944Zm2.047-.031L9.2,27.49l1.8-.037-.064-1.933Zm2.069-.031.064,1.933,2.087-.043-.064-1.921Zm2.354-.036.064,1.921,2.178-.044-.055-1.909Zm2.452-.036.057,1.908,2.232-.046-.058-1.9Zm2.5-.039.058,1.9,1.9-.039-.054-1.886Zm2.166-.033.055,1.886,1.982-.042-.055-1.874ZM2.968,23.427l.058,1.945,1.756-.027L4.728,23.4ZM5,23.394l.054,1.947,1.765-.027-.063-1.948Zm2.023-.032.063,1.949,1.781-.027L8.8,23.333Zm2.048-.033.063,1.951,1.8-.027L10.865,23.3Zm2.066-.033.064,1.952,2.088-.031-.066-1.956Zm2.354-.039.064,1.956,2.187-.033-.057-1.959Zm2.461-.04L16,25.177l2.23-.034-.06-1.962Zm2.494-.04.06,1.963,1.9-.03-.057-1.963Zm2.169-.034.057,1.965,1.982-.031-.058-1.965ZM2.9,21.272l.057,1.889,1.762-.028-.052-1.889Zm2.033-.033.052,1.889L6.742,23.1l-.061-1.888Zm2.012-.032.061,1.888,1.783-.028-.06-1.889ZM9,21.175l.061,1.887,1.8-.028-.061-1.887Zm2.063-.033.063,1.887,2.088-.034-.063-1.887Zm2.355-.037.061,1.887,2.2-.036-.055-1.887Zm2.469-.04.055,1.887,2.226-.036-.057-1.887Zm2.491-.039.057,1.886,1.9-.031-.055-1.886Zm2.172-.036.055,1.886,1.981-.031-.055-1.886Zm2.248-.034.055,1.884,1.8-.028-.058-1.886ZM.9,18.747l.069,2.288,1.662-.025-.069-2.282Zm1.929-.022L2.895,21l1.766-.028L4.6,18.7ZM4.865,18.7l.063,2.272,1.744-.027L6.6,18.681Zm2-.022.073,2.263,1.784-.028-.072-2.254Zm2.053-.022.072,2.253,1.8-.028-.075-2.245Zm2.06-.024.075,2.244,2.087-.033-.073-2.235Zm2.355-.027.073,2.233,2.2-.036-.064-2.223Zm2.478-.028.066,2.223,2.223-.036-.067-2.212Zm2.488-.028.067,2.211,1.906-.03-.063-2.2Zm2.176-.025.064,2.2,1.979-.031L22.455,18.5Zm2.246-.025.064,2.191,1.793-.028-.067-2.182ZM.833,16.579l.057,1.9,1.66-.019-.057-1.906Zm1.927-.03.057,1.908,1.774-.019-.052-1.915Zm2.045-.031.052,1.917,1.732-.021-.061-1.921Zm1.99-.03.061,1.923,1.786-.019L8.581,16.46Zm2.053-.031.061,1.932,1.793-.021-.063-1.939Zm2.057-.033.064,1.941,2.088-.024-.064-1.95Zm2.355-.036.064,1.95,2.214-.025-.058-1.959Zm2.487-.039.057,1.96,2.221-.025-.061-1.969Zm2.484-.039.061,1.971L20.2,18.26l-.057-1.98Zm2.181-.032.057,1.979,1.979-.022-.058-1.988Zm2.243-.034.06,1.988,1.789-.021-.061-2Zm-21.9-2.32.072,2.39,1.659-.027-.07-2.367Zm1.926-.006.072,2.366,1.78-.028-.064-2.342Zm2.054-.006L4.8,16.251l1.721-.025-.075-2.318Zm1.978,0,.075,2.314,1.787-.028L8.5,13.9ZM8.768,13.9l.072,2.288,1.792-.028L10.556,13.9Zm2.056,0,.075,2.26,2.087-.031-.073-2.235Zm2.355-.007.073,2.232,2.221-.034-.064-2.2Zm2.5-.006.064,2.2,2.217-.034-.066-2.17Zm2.482-.007.066,2.167,1.914-.028-.063-2.144Zm2.184-.006L20.4,16.01l1.978-.031-.063-2.114Zm2.243-.006.063,2.112,1.786-.028-.064-2.089Zm-21.9-2.2.06,2,1.659,0-.06-2Zm1.924-.016.061,2.006,1.787,0L4.4,11.631Zm2.06-.016.055,2.018,1.709,0-.066-2.027Zm1.966-.015L6.7,13.64l1.789,0L8.428,11.6ZM8.695,11.6l.064,2.039,1.789,0-.067-2.048Zm2.053-.016.067,2.051,2.088-.006-.069-2.061ZM13.1,11.56l.069,2.063,2.232-.006-.06-2.075Zm2.506-.019.061,2.076,2.214-.006-.064-2.088Zm2.478-.021.064,2.09,1.918,0-.061-2.1Zm2.188-.018.061,2.1,1.976,0-.063-2.114Zm2.242-.018.063,2.114,1.783,0-.066-2.124ZM.626,9.6l.054,1.79,1.657-.013L2.283,9.6Zm1.924,0L2.6,11.379,4.4,11.364,4.349,9.6Zm2.064,0,.049,1.762,1.7-.013L6.3,9.6Zm1.957,0,.057,1.75,1.79-.015L8.363,9.595Zm2.059,0,.055,1.737,1.786-.015-.057-1.723Zm2.051,0,.057,1.72,2.088-.016L12.77,9.589Zm2.355,0,.055,1.705,2.24-.019-.049-1.689Zm2.513,0,.049,1.687,2.211-.018-.051-1.672Zm2.476,0,.051,1.671L20,11.237,19.951,9.58Zm2.19,0,.049,1.656,1.975-.016-.048-1.641Zm2.243,0,.048,1.639,1.78-.013-.051-1.628ZM2.543,9.334h1.8L4.294,7.623h-1.8ZM4.561,7.623l.048,1.709H6.3L6.241,7.622Zm2,1.706H8.356L8.3,7.622H6.508Zm2.059,0h1.784l-.055-1.7H8.568Zm1.994-1.7.057,1.7,2.088,0-.055-1.7Zm2.412,1.7,2.248,0-.049-1.7H12.971Zm2.515,0,2.208,0-.051-1.7H15.494Zm2.475,0,1.924,0-.049-1.694H17.967Zm2.191,0h1.975l-.049-1.694H20.16Zm2.242,0h1.777l-.052-1.691H22.4Zm-16-3.587L6.5,7.356H8.293L8.24,5.7Zm-1.938.019.045,1.614H6.232L6.18,5.726Zm-2.075.019.049,1.594h1.8L4.243,5.744Zm8.119-.079.054,1.672H12.7l-.057-1.69ZM8.507,5.7l.052,1.651h1.783l-.055-1.669Zm6.929-.067.051,1.717h2.2l-.052-1.738Zm-2.528.024.057,1.693h2.255l-.051-1.715ZM20.1,5.59l.051,1.762h1.975L22.073,5.57Zm-2.2.021.052,1.741h1.927l-.051-1.759Zm4.435-.042.054,1.781h1.772l-.055-1.8ZM4.463,4.043,4.5,5.475l1.669-.016L6.124,4.025Zm1.929-.021.046,1.434,1.794-.018L8.186,4ZM8.453,4,8.5,5.436l1.778-.018L10.229,3.98ZM10.5,3.977l.048,1.438L12.633,5.4l-.048-1.441Zm2.355-.025L12.9,5.393l2.263-.022-.042-1.443Zm2.534-.027.042,1.444,2.2-.022L17.586,3.9ZM17.853,3.9,17.9,5.345l1.93-.019-.042-1.448Zm2.2-.024.043,1.448L22.066,5.3l-.043-1.45ZM6.336,2.323l.046,1.433,1.8-.021-.048-1.46ZM8.4,2.268l.046,1.465,1.777-.018-.049-1.5Zm2.041-.057.049,1.5,2.088-.024-.051-1.533Zm2.354-.063.051,1.536,2.269-.024-.046-1.575Zm2.54-.07.045,1.58,2.2-.024-.049-1.615ZM17.8,2.013l.049,1.618,1.933-.021-.049-1.651Z" transform="translate(0.669 0.674)" fill="#587476"/>
        <path id="Path_3126" data-name="Path 3126" d="M14.055,1.338a24.108,24.108,0,0,0-3.522.223A11.811,11.811,0,0,0,7.1,2.573a8.61,8.61,0,0,0-2.941,2.3,12,12,0,0,0-2.18,4.319C.769,13.319,1.5,18.46,2.324,22.046a43.373,43.373,0,0,0,3.408,9.731A29.71,29.71,0,0,0,9.68,37.661a8.531,8.531,0,0,0,2.139,1.709,4.658,4.658,0,0,0,2.235.583,5.55,5.55,0,0,0,2.551-.592,7.406,7.406,0,0,0,2.17-1.725,23.779,23.779,0,0,0,3.747-6.5,50.594,50.594,0,0,0,2.715-9.384,42.328,42.328,0,0,0,.772-6.48,22.742,22.742,0,0,0-.528-6.14A10.956,10.956,0,0,0,23.5,4.865a8.363,8.363,0,0,0-2.858-2.287A11.633,11.633,0,0,0,17.3,1.563a20.47,20.47,0,0,0-3.25-.225m0-1.338C18.2,0,24.8.737,26.783,8.816S25.2,28.3,23.753,31.666c-2.35,5.475-5.035,9.625-9.7,9.625-4.109,0-6.989-4.278-9.5-8.873-1.907-3.494-6.239-15.5-3.865-23.6S9.391,0,14.055,0Z" transform="translate(0 0)" fill="#151515"/>
      </g>
      <g id="Group_1492" data-name="Group 1492" transform="translate(106.707 55.75)">
        <ellipse id="Ellipse_2" data-name="Ellipse 2" cx="5.36" cy="5.36" rx="5.36" ry="5.36" transform="translate(0)" fill="#c1f896"/>
        <path id="Path_17" data-name="Path 17" d="M.322,5.088a.322.322,0,0,1-.084-.632A5.2,5.2,0,0,0,2.686,2.97a4.217,4.217,0,0,0,.492-2.6.322.322,0,0,1,.637-.09A4.8,4.8,0,0,1,3.21,3.344a5.763,5.763,0,0,1-2.8,1.733A.322.322,0,0,1,.322,5.088Z" transform="translate(0.549 0.906)" fill="#fff"/>
        <path id="Path_18" data-name="Path 18" d="M3.533,0a.322.322,0,0,1,.084.632A5.2,5.2,0,0,0,1.169,2.118a4.217,4.217,0,0,0-.492,2.6.322.322,0,0,1-.637.09A4.8,4.8,0,0,1,.645,1.744,5.763,5.763,0,0,1,3.449.011.322.322,0,0,1,3.533,0Z" transform="translate(5.943 4.64)" fill="#fff"/>
        <path id="Path_19" data-name="Path 19" d="M5.36,1.285c1.234,1.291.082,2.824.906,4.491s4.037.741,3.3,1.7A5.361,5.361,0,0,1,0,4.145,5.378,5.378,0,0,1,1.33.611C2.273-.489,4.126-.006,5.36,1.285Z" transform="translate(0 1.215)" opacity="0.146"/>
      </g>
    </g>
  </g>
</svg>
