<svg xmlns="http://www.w3.org/2000/svg" width="125.094" height="126" viewBox="0 0 125.094 126">
  <g id="Group_2584" data-name="Group 2584" transform="translate(-374 -456)">
    <path id="Path_3873" data-name="Path 3873" d="M22.662,0h79.77a22.662,22.662,0,0,1,22.662,22.662v80.676A22.662,22.662,0,0,1,102.432,126H22.662A22.662,22.662,0,0,1,0,103.338V22.662A22.662,22.662,0,0,1,22.662,0Z" transform="translate(374 456)" fill="#0a3133"/>
    <g id="gtg-logo" transform="translate(402.014 484.341)">
      <path id="Path_2294" data-name="Path 2294" d="M992.664,969.6l-48.914-41.06c7.657-4.708,15.03-5.642,24.693-3.244l-2.518,4.12a16.565,16.565,0,0,0-11.539,1.11l34.926,29.323a30.217,30.217,0,0,0-8.267-21.931l-3.165,2.792-3.745-3.195,5.632-6.694C992.094,938.333,997.648,954.64,992.664,969.6Z" transform="translate(-925.419 -924.023)" fill="#fff"/>
      <path id="Path_2295" data-name="Path 2295" d="M975.538,989.766c-12.445,6.458-27.367,4.915-37.433-3.45-11.727-9.83-15.05-22.265-11.855-37.806l13.084,10.96-2.89,4.03-5.829-4.188c-1.877,16.986,16.22,32.321,33.845,28.271l-13.467-11.412-2.635,2.74-4.993-4.391,5.741-6.881Z" transform="translate(-925.102 -924.439)" fill="#fff"/>
      <path id="Path_2296" data-name="Path 2296" d="M987.636,979.658l-3.45,3.873-49.25-41.225a18.788,18.788,0,0,0-3.821,6.935l-3.879-3.205a57.379,57.379,0,0,1,6.086-8.929,46.929,46.929,0,0,1,7.527-6.836l3.8,2.964a34.184,34.184,0,0,0-6.311,5.014Z" transform="translate(-924.824 -924.505)" fill="#fff"/>
    </g>
  </g>
</svg>
