<svg id="Group_2720" data-name="Group 2720" xmlns="http://www.w3.org/2000/svg" width="79.074" height="58" viewBox="0 0 79.074 58">
  <rect id="Rectangle_2842" data-name="Rectangle 2842" width="79.074" height="58" rx="8" fill="#f5f6f8"/>
  <g id="trash" transform="translate(29.483 16.935)">
    <path id="Path_3799" data-name="Path 3799" d="M21.1,4.022H17.986A5.036,5.036,0,0,0,13.06,0H11.049A5.036,5.036,0,0,0,6.122,4.022H3.005a1.005,1.005,0,0,0,0,2.011H4.011V19.1A5.033,5.033,0,0,0,9.038,24.13h6.033A5.033,5.033,0,0,0,20.1,19.1V6.033H21.1a1.005,1.005,0,1,0,0-2.011ZM11.049,2.011H13.06A3.022,3.022,0,0,1,15.9,4.022H8.2a3.022,3.022,0,0,1,2.844-2.011ZM18.087,19.1a3.016,3.016,0,0,1-3.016,3.016H9.038A3.016,3.016,0,0,1,6.022,19.1V6.033H18.087Z" transform="translate(-2)"/>
    <path id="Path_3800" data-name="Path 3800" d="M10.005,18.043a1,1,0,0,0,1.005-1.005V11.005a1.005,1.005,0,0,0-2.011,0v6.033A1,1,0,0,0,10.005,18.043Z" transform="translate(-1.962 0.054)"/>
    <path id="Path_3801" data-name="Path 3801" d="M14.005,18.043a1,1,0,0,0,1.005-1.005V11.005a1.005,1.005,0,0,0-2.011,0v6.033A1,1,0,0,0,14.005,18.043Z" transform="translate(-1.94 0.054)"/>
  </g>
</svg>
