<svg xmlns="http://www.w3.org/2000/svg" width="31.137" height="32.962" viewBox="0 0 31.137 32.962">
  <path id="Path_1499" data-name="Path 1499" d="M-17418.119-999.406a10.035,10.035,0,0,1-5.191-1.426,9.227,9.227,0,0,1-4.4-7.577,9.924,9.924,0,0,1,4.131-8.845,9.724,9.724,0,0,1,9.666-.587,32.051,32.051,0,0,1,7.125,5.1c3.594-3.171,5.883-5.848,4.283-9.791-1.842-4.546-8.373-4.627-19.758-4.379l-2.715.056a2.692,2.692,0,0,1-2.738-2.637,2.691,2.691,0,0,1,2.641-2.735l2.693-.056c11.557-.252,21.533-.47,24.857,7.732,2.963,7.31-1.734,12.307-5.34,15.517,2.5,2.5,4.424,4.647,4.859,5.141a2.685,2.685,0,0,1-.229,3.792,2.685,2.685,0,0,1-3.791-.23c-1.023-1.152-2.83-3.1-4.887-5.137a34.176,34.176,0,0,1-6.982,5.151A10.147,10.147,0,0,1-17418.119-999.406Zm-.26-14.062a3.8,3.8,0,0,0-2.172.652,4.542,4.542,0,0,0-1.793,4.136,3.8,3.8,0,0,0,1.818,3.253,4.805,4.805,0,0,0,4.385.225,31.025,31.025,0,0,0,5.293-3.959,24.922,24.922,0,0,0-5.275-3.782A5.515,5.515,0,0,0-17418.379-1013.469Z" transform="translate(17427.727 1032.368)" fill="#1b8186"/>
</svg>
