<svg xmlns="http://www.w3.org/2000/svg" width="95" height="95" viewBox="0 0 95 95">
  <g id="Group_2811" data-name="Group 2811" transform="translate(-1191 -2441)">
    <g id="Group_2810" data-name="Group 2810">
      <rect id="Rectangle_3402" data-name="Rectangle 3402" width="95" height="95" rx="12" transform="translate(1191 2441)" fill="#f9fafc"/>
    </g>
    <path id="primary" d="M12.04,2h.01a11.1,11.1,0,0,1,7.79,3.259q.1.1.2.2.095-.1.192-.2a10.966,10.966,0,0,1,15.609,0,11.121,11.121,0,0,1,0,15.694L21.182,35.728a1.615,1.615,0,0,1-2.293,0L4.234,20.957A11.121,11.121,0,0,1,12.026,2Zm8,7.722a1.615,1.615,0,0,1-1.386-.786,7.024,7.024,0,0,0-1.086-1.385l-.008-.008A7.837,7.837,0,0,0,6.526,18.681L20.035,32.3,33.544,18.681a7.89,7.89,0,0,0,0-11.138l-.006-.006a7.735,7.735,0,0,0-11.018,0l-.014.014a7.024,7.024,0,0,0-1.086,1.385A1.615,1.615,0,0,1,20.035,9.722Z" transform="translate(1218.363 2469.62)"/>
    <path id="Path_3879" data-name="Path 3879" d="M16.52,1.225c1.443.1,8.911-4,12.1-2.071,3.639,2.186,4.665,6.86,4.665,11.272-5.156,6.661-14.517,17.41-16.17,17.3S-.9,15.872-.9,8.455A9.881,9.881,0,0,1,7.07-1.388C11.826-2.128,15.814,1.376,16.52,1.225Z" transform="translate(1221.787 2474.945)"/>
  </g>
</svg>
