<svg xmlns="http://www.w3.org/2000/svg" xmlns:xlink="http://www.w3.org/1999/xlink" width="66" height="66" viewBox="0 0 66 66">
  <defs>
    <clipPath id="clip-path">
      <rect id="Rectangle_3302" data-name="Rectangle 3302" width="66" height="66" transform="translate(0.392 0)"/>
    </clipPath>
  </defs>
  <g id="Instagram_r_logo" data-name="Instagram r logo" transform="translate(-0.392 0)" clip-path="url(#clip-path)">
    <circle id="Ellipse_527" data-name="Ellipse 527" cx="33" cy="33" r="33" transform="translate(0.392 0)" fill="#edf8f8"/>
    <path id="iconmonstr-instagram-11" d="M16.216,2.923c4.33,0,4.843.016,6.554.095,4.394.2,6.447,2.285,6.647,6.647.078,1.709.093,2.223.093,6.553s-.016,4.843-.093,6.553c-.2,4.358-2.249,6.447-6.647,6.647-1.711.078-2.221.095-6.554.095s-4.843-.016-6.553-.095c-4.405-.2-6.447-2.3-6.647-6.649-.078-1.709-.095-2.222-.095-6.553s.018-4.842.095-6.553c.2-4.361,2.249-6.447,6.647-6.647C11.374,2.939,11.886,2.923,16.216,2.923Zm0-2.923c-4.4,0-4.955.019-6.685.1C3.642.368.369,3.635.1,9.53c-.08,1.731-.1,2.282-.1,6.686S.019,21.173.1,22.9c.27,5.889,3.538,9.162,9.432,9.432,1.731.078,2.282.1,6.686.1s4.957-.019,6.686-.1c5.884-.27,9.165-3.538,9.431-9.432.08-1.73.1-2.282.1-6.686s-.019-4.955-.1-6.685C32.069,3.647,28.8.369,22.9.1,21.172.019,20.62,0,16.216,0Zm0,7.889a8.328,8.328,0,1,0,8.327,8.327A8.327,8.327,0,0,0,16.216,7.889Zm0,13.732a5.405,5.405,0,1,1,5.405-5.405A5.4,5.4,0,0,1,16.216,21.621ZM24.872,5.615A1.946,1.946,0,1,0,26.817,7.56a1.946,1.946,0,0,0-1.945-1.945Z" transform="translate(17.057 16.784)" fill="#1b8186"/>
  </g>
</svg>
