<svg xmlns="http://www.w3.org/2000/svg" width="28.273" height="18.849" viewBox="0 0 28.273 18.849">
  <path id="laptop" d="M23.561,20.493a2.363,2.363,0,0,0,2.356-2.356V6.356A2.363,2.363,0,0,0,23.561,4H4.712A2.363,2.363,0,0,0,2.356,6.356v11.78a2.363,2.363,0,0,0,2.356,2.356H1.178a1.178,1.178,0,0,0,0,2.356H27.095a1.178,1.178,0,0,0,0-2.356ZM5.89,6.356H22.383a1.182,1.182,0,0,1,1.178,1.178v9.424a1.182,1.182,0,0,1-1.178,1.178H5.89a1.182,1.182,0,0,1-1.178-1.178V7.534A1.182,1.182,0,0,1,5.89,6.356Z" transform="translate(0 -4)"/>
</svg>
