<svg id="marker_2_" data-name="marker (2)" xmlns="http://www.w3.org/2000/svg" width="18.034" height="21.525" viewBox="0 0 18.034 21.525">
  <path id="Path_3776" data-name="Path 3776" d="M11.587,6a3.587,3.587,0,1,0,3.587,3.587A3.587,3.587,0,0,0,11.587,6Zm0,5.381a1.794,1.794,0,1,1,1.794-1.794A1.794,1.794,0,0,1,11.587,11.381Z" transform="translate(-2.57 -0.617)" fill="#209ca2"/>
  <path id="Path_3777" data-name="Path 3777" d="M10.962,21.523A4.727,4.727,0,0,1,7.1,19.55C3.679,14.835,1.945,11.291,1.945,9.015a9.017,9.017,0,1,1,18.035,0c0,2.276-1.734,5.82-5.151,10.535a4.727,4.727,0,0,1-3.866,1.973Zm0-19.567A7.069,7.069,0,0,0,3.9,9.017c0,1.8,1.7,5.136,4.779,9.386a2.82,2.82,0,0,0,4.565,0c3.081-4.25,4.779-7.583,4.779-9.386a7.069,7.069,0,0,0-7.061-7.061Z" transform="translate(-1.945 0.002)" fill="#209ca2"/>
</svg>
