<svg xmlns="http://www.w3.org/2000/svg" width="39.008" height="41.294" viewBox="0 0 39.008 41.294">
  <path id="Path_1499" data-name="Path 1499" d="M-17415.691-991.074a12.579,12.579,0,0,1-6.5-1.786,11.565,11.565,0,0,1-5.512-9.492,12.431,12.431,0,0,1,5.176-11.081,12.182,12.182,0,0,1,12.109-.735,40.239,40.239,0,0,1,8.926,6.387c4.5-3.973,7.371-7.326,5.367-12.266-2.309-5.7-10.492-5.8-24.754-5.485l-3.4.07a3.372,3.372,0,0,1-3.43-3.3,3.373,3.373,0,0,1,3.309-3.426l3.375-.07c14.477-.316,26.977-.589,31.141,9.686,3.711,9.158-2.172,15.418-6.691,19.439,3.137,3.131,5.543,5.822,6.09,6.44a3.367,3.367,0,0,1-.285,4.75,3.365,3.365,0,0,1-4.75-.288c-1.281-1.443-3.547-3.881-6.121-6.436-3.59,3.141-6.5,5.417-8.75,6.452A12.711,12.711,0,0,1-17415.691-991.074Zm-.324-17.617a4.763,4.763,0,0,0-2.723.817,5.7,5.7,0,0,0-2.246,5.182,4.762,4.762,0,0,0,2.281,4.075,6.018,6.018,0,0,0,5.492.282,38.941,38.941,0,0,0,6.629-4.96,31.159,31.159,0,0,0-6.609-4.738A6.892,6.892,0,0,0-17416.016-1008.691Z" transform="translate(17427.725 1032.368)" fill="#1b8186"/>
</svg>
