<svg xmlns="http://www.w3.org/2000/svg" width="24.948" height="22.453" viewBox="0 0 24.948 22.453">
  <g id="Group_1085" data-name="Group 1085" transform="translate(-2 -3)">
    <path id="primary" d="M6.99,17.979a1.244,1.244,0,0,1-.882-.365L2.365,13.872a1.247,1.247,0,0,1,0-1.764L6.108,8.365a1.247,1.247,0,0,1,1.764,1.764l-2.86,2.86,2.86,2.86a1.247,1.247,0,0,1-.882,2.129Z" transform="translate(0 1.237)"/>
    <path id="primary-2" data-name="primary" d="M22.721,25.453H11.495A2.5,2.5,0,0,1,9,22.958V19.216a1.247,1.247,0,0,1,2.495,0v3.742H22.721V5.495H11.495V9.237A1.247,1.247,0,0,1,9,9.237V5.495A2.5,2.5,0,0,1,11.495,3H22.721a2.5,2.5,0,0,1,2.495,2.495V22.958A2.5,2.5,0,0,1,22.721,25.453Z" transform="translate(1.732 0)"/>
    <path id="Path_2296" data-name="Path 2296" d="M1.311,0H17.375a1.311,1.311,0,0,1,0,2.623H1.311A1.311,1.311,0,0,1,1.311,0Z" transform="translate(3.344 12.835)"/>
  </g>
</svg>
