<svg xmlns="http://www.w3.org/2000/svg" width="25.553" height="27.052" viewBox="0 0 25.553 27.052">
  <path id="Path_1499" data-name="Path 1499" d="M-17419.84-1005.316a8.235,8.235,0,0,1-4.262-1.17,7.567,7.567,0,0,1-3.609-6.218,8.142,8.142,0,0,1,3.389-7.259,7.979,7.979,0,0,1,7.932-.482,26.227,26.227,0,0,1,5.848,4.184c2.951-2.6,4.83-4.8,3.518-8.036-1.512-3.731-6.873-3.8-16.215-3.593l-2.23.046a2.209,2.209,0,0,1-2.246-2.164,2.208,2.208,0,0,1,2.166-2.244l2.211-.046c9.484-.207,17.672-.386,20.4,6.345,2.432,6-1.422,10.1-4.381,12.735,2.053,2.051,3.629,3.814,3.986,4.219a2.2,2.2,0,0,1-.187,3.112,2.2,2.2,0,0,1-3.111-.189c-.84-.946-2.322-2.543-4.01-4.216a28.052,28.052,0,0,1-5.73,4.227A8.331,8.331,0,0,1-17419.84-1005.316Zm-.213-11.541a3.129,3.129,0,0,0-1.785.535,3.733,3.733,0,0,0-1.471,3.395,3.125,3.125,0,0,0,1.492,2.67,3.946,3.946,0,0,0,3.6.185,25.4,25.4,0,0,0,4.344-3.249,20.439,20.439,0,0,0-4.33-3.1A4.511,4.511,0,0,0-17420.053-1016.857Z" transform="translate(17427.723 1032.369)" fill="#1b8186"/>
</svg>
