<svg xmlns="http://www.w3.org/2000/svg" width="64.193" height="19.08" viewBox="0 0 64.193 19.08">
  <path id="Path_3864" data-name="Path 3864" d="M8.439-19.137a3.608,3.608,0,0,0-3.613,2v-1.856H2.03V-5.65H5V-13.2a2.942,2.942,0,0,1,3.069-3.267H9.677v-2.673Zm8.241-.148a5.859,5.859,0,0,0-5.642,3.44l2.574,1.287a3.186,3.186,0,0,1,3.069-2.054c1.485,0,2.5.817,2.5,2.054v.421l-4.38.94c-2.7.594-4.256,1.905-4.256,3.885,0,2.277,1.881,3.959,4.85,3.959a4.95,4.95,0,0,0,3.959-1.782V-5.65h2.8v-8.909C22.149-17.33,19.922-19.285,16.68-19.285ZM15.74-7.7c-1.287,0-2.1-.619-2.1-1.633,0-.817.643-1.46,1.757-1.708l3.786-.841v.866A3.3,3.3,0,0,1,15.74-7.7ZM30.39-5.353a6.213,6.213,0,0,0,5.964-3.811L33.78-10.475A3.457,3.457,0,0,1,30.39-8.1c-2.178,0-3.761-1.782-3.761-4.207,0-2.475,1.584-4.232,3.761-4.232a3.51,3.51,0,0,1,3.39,2.376l2.574-1.287a6.175,6.175,0,0,0-5.964-3.836,6.726,6.726,0,0,0-6.855,6.954A6.761,6.761,0,0,0,30.39-5.353ZM48.381-18.988v1.658a5.388,5.388,0,0,0-4.4-1.955,6.744,6.744,0,0,0-6.731,6.954A6.755,6.755,0,0,0,44-5.353a5.619,5.619,0,0,0,4.232-1.683V-.7H51.2V-18.988ZM44.3-8.1a3.957,3.957,0,0,1-3.959-4.207A3.965,3.965,0,0,1,44.3-16.538a3.946,3.946,0,0,1,3.935,4.232A3.939,3.939,0,0,1,44.3-8.1ZM62.981-18.988,59.393-9.56,55.8-18.988H52.563L57.809-5.7,57.364-4.66a2.407,2.407,0,0,1-2.5,1.807,6.8,6.8,0,0,1-1.534-.2v2.5a4.838,4.838,0,0,0,1.955.346c3.366,0,4.4-2.425,5-3.885l5.939-14.9Z" transform="translate(-2.03 19.285)" fill="#0a3133"/>
</svg>
