<svg xmlns="http://www.w3.org/2000/svg" width="41" height="41" viewBox="0 0 41 41">
  <g id="Group_2809" data-name="Group 2809" transform="translate(-1279 -302)">
    <circle id="Ellipse_185" data-name="Ellipse 185" cx="20.5" cy="20.5" r="20.5" transform="translate(1279 302)" fill="#e0eff0"/>
    <path id="Path_1501" data-name="Path 1501" d="M-17422.217-1013.228a5.77,5.77,0,0,1-2.982-.819,5.3,5.3,0,0,1-2.527-4.352,5.7,5.7,0,0,1,2.373-5.081,5.586,5.586,0,0,1,5.553-.337,18.446,18.446,0,0,1,4.09,2.925c2.035-1.823,3.416-3.449,2.48-5.58-1.148-2.617-5.316-2.67-12.02-2.541l-.906.017a1.545,1.545,0,0,1-1.572-1.515,1.543,1.543,0,0,1,1.516-1.571l.9-.017c6.906-.133,12.869-.248,14.9,4.386,1.785,4.065-1.012,7.1-3.057,8.948,1.441,1.438,2.547,2.674,2.8,2.958a1.543,1.543,0,0,1-.133,2.178,1.543,1.543,0,0,1-2.178-.132c-.586-.662-1.625-1.78-2.807-2.951a19.62,19.62,0,0,1-4.012,2.958A5.817,5.817,0,0,1-17422.217-1013.228Zm-.148-8.078a2.177,2.177,0,0,0-1.248.375,2.616,2.616,0,0,0-1.031,2.376,2.187,2.187,0,0,0,1.047,1.868,2.758,2.758,0,0,0,2.518.13,17.773,17.773,0,0,0,3.039-2.274,14.274,14.274,0,0,0-3.029-2.172A3.165,3.165,0,0,0-17422.365-1021.305Z" transform="translate(18718.285 1345.185)" fill="#0e5b5f"/>
  </g>
</svg>
