<svg xmlns="http://www.w3.org/2000/svg" width="46.14" height="46.14" viewBox="0 0 46.14 46.14">
  <g id="Group_2808" data-name="Group 2808" transform="translate(-1653.93 -18.931)">
    <path id="Path_3841" data-name="Path 3841" d="M12.817,0H33.323A12.817,12.817,0,0,1,46.14,12.817V33.323A12.817,12.817,0,0,1,33.323,46.14H12.817A12.817,12.817,0,0,1,0,33.323V12.817A12.817,12.817,0,0,1,12.817,0Z" transform="translate(1653.93 18.931)"/>
    <path id="Path_3859" data-name="Path 3859" d="M1.9,0H4.275V-7.15H8.55c3.825,0,6.4-2.25,6.4-5.725,0-3.5-2.6-5.75-6.4-5.75H1.9ZM4.275-9.225V-16.55H8.55c2.375,0,3.95,1.475,3.95,3.65A3.608,3.608,0,0,1,8.55-9.225Z" transform="translate(1669.574 51.313)" fill="#fff"/>
  </g>
</svg>
