<svg xmlns="http://www.w3.org/2000/svg" width="100" height="98" viewBox="0 0 100 98">
  <g id="Group_2808" data-name="Group 2808" transform="translate(-1019 -2222)">
    <g id="Group_2807" data-name="Group 2807">
      <rect id="Rectangle_3400" data-name="Rectangle 3400" width="100" height="98" rx="12" transform="translate(1019 2222)" fill="#f9fafc"/>
    </g>
    <g id="user_7_" data-name="user (7)" transform="translate(1054.243 2250.957)">
      <path id="Path_3875" data-name="Path 3875" d="M33.091,30.717H28.076V22.359a3.343,3.343,0,0,0-3.343-3.343H11.359a3.343,3.343,0,0,0-3.343,3.343v8.359H3V22.359A8.369,8.369,0,0,1,11.359,14H24.732a8.369,8.369,0,0,1,8.359,8.359Z" transform="translate(-3 9.404)"/>
      <path id="Path_3876" data-name="Path 3876" d="M16.03,20.061a10.03,10.03,0,1,1,10.03-10.03A10.03,10.03,0,0,1,16.03,20.061Zm0-15.045a5.015,5.015,0,1,0,5.015,5.015A5.015,5.015,0,0,0,16.03,5.015Z" transform="translate(-0.985 0)"/>
    </g>
  </g>
</svg>
