<svg xmlns="http://www.w3.org/2000/svg" width="19.254" height="25.671" viewBox="0 0 19.254 25.671">
  <g id="Group_2807" data-name="Group 2807" transform="translate(-406.528 -589.14)">
    <path id="Path_3774" data-name="Path 3774" d="M9.418,12.835A6.418,6.418,0,1,0,3,6.418,6.418,6.418,0,0,0,9.418,12.835Zm0-10.7A4.278,4.278,0,1,1,5.139,6.418,4.279,4.279,0,0,1,9.418,2.139Z" transform="translate(406.738 589.14)"/>
    <path id="Path_3775" data-name="Path 3775" d="M9.627,14A9.637,9.637,0,0,0,0,23.627a1.07,1.07,0,0,0,2.139,0,7.488,7.488,0,0,1,14.975,0,1.07,1.07,0,0,0,2.139,0A9.637,9.637,0,0,0,9.627,14Z" transform="translate(406.528 590.114)"/>
  </g>
</svg>
