<svg id="Group_2723" data-name="Group 2723" xmlns="http://www.w3.org/2000/svg" width="23.01" height="23.01" viewBox="0 0 23.01 23.01">
  <rect id="Rectangle_2842" data-name="Rectangle 2842" width="23.01" height="23.01" rx="11" fill="#fff"/>
  <g id="Group_2724" data-name="Group 2724" transform="translate(5.79 5.79)">
    <path id="Path_1335" data-name="Path 1335" d="M.537,0a.537.537,0,0,1,.537.537V10.893a.537.537,0,1,1-1.074,0V.537A.537.537,0,0,1,.537,0Z" transform="translate(11.43 5.178) rotate(90)"/>
  </g>
  <g id="Group_2769" data-name="Group 2769" transform="translate(17.22 5.79) rotate(90)">
    <path id="Path_1335-2" data-name="Path 1335" d="M.537,0a.537.537,0,0,1,.537.537V10.893a.537.537,0,1,1-1.074,0V.537A.537.537,0,0,1,.537,0Z" transform="translate(11.43 5.178) rotate(90)"/>
  </g>
</svg>
