<svg xmlns="http://www.w3.org/2000/svg" width="38.074" height="34.206" viewBox="0 0 38.074 34.206">
  <path id="primary" d="M12.04,2h.01a11.1,11.1,0,0,1,7.79,3.259q.1.1.2.2.095-.1.192-.2a10.966,10.966,0,0,1,15.609,0,11.121,11.121,0,0,1,0,15.694L21.182,35.728a1.615,1.615,0,0,1-2.293,0L4.234,20.957A11.121,11.121,0,0,1,12.026,2Zm8,7.722a1.615,1.615,0,0,1-1.386-.786,7.024,7.024,0,0,0-1.086-1.385l-.008-.008A7.837,7.837,0,0,0,6.526,18.681L20.035,32.3,33.544,18.681a7.89,7.89,0,0,0,0-11.138l-.006-.006a7.735,7.735,0,0,0-11.018,0l-.014.014a7.024,7.024,0,0,0-1.086,1.385A1.615,1.615,0,0,1,20.035,9.722Z" transform="translate(-1.002 -2)"/>
</svg>
