<svg id="interrogation_1_" data-name="interrogation (1)" xmlns="http://www.w3.org/2000/svg" width="22" height="22" viewBox="0 0 22 22">
  <path id="Path_3853" data-name="Path 3853" d="M11,0A11,11,0,1,0,22,11,11,11,0,0,0,11,0Zm0,20.167A9.167,9.167,0,1,1,20.167,11,9.167,9.167,0,0,1,11,20.167Z"/>
  <path id="Path_3854" data-name="Path 3854" d="M12.3,5.057A3.646,3.646,0,0,0,8,8.646a.911.911,0,0,0,1.823,0,1.823,1.823,0,0,1,2.161-1.793,1.845,1.845,0,0,1,1.458,1.454,1.823,1.823,0,0,1-.911,1.937,3.6,3.6,0,0,0-1.8,3.194v.677a.911.911,0,0,0,1.823,0v-.677a1.806,1.806,0,0,1,.848-1.6A3.646,3.646,0,0,0,12.3,5.057Z" transform="translate(-0.646 -0.394)"/>
  <rect id="Rectangle_2854" data-name="Rectangle 2854" width="2.035" height="2.035" rx="1" transform="translate(9.983 15.102)"/>
</svg>
