<svg xmlns="http://www.w3.org/2000/svg" width="11.212" height="19.26" viewBox="0 0 11.212 19.26">
  <g id="Group_2809" data-name="Group 2809" transform="translate(-413.396 -591.37)">
    <path id="Path_4891" data-name="Path 4891" d="M14.607,5.089A5.6,5.6,0,0,0,8,10.6a1.4,1.4,0,0,0,2.8,0,2.8,2.8,0,0,1,3.321-2.755,2.835,2.835,0,0,1,2.241,2.234,2.8,2.8,0,0,1-1.4,2.976A5.538,5.538,0,0,0,12.2,17.966v1.041a1.4,1.4,0,0,0,2.8,0V17.966a2.776,2.776,0,0,1,1.3-2.454,5.6,5.6,0,0,0-1.7-10.424Z" transform="translate(405.396 586.372)"/>
    <rect id="Rectangle_3421" data-name="Rectangle 3421" width="3.127" height="3.127" rx="1" transform="translate(417.436 607.503)"/>
  </g>
</svg>
