<svg xmlns="http://www.w3.org/2000/svg" width="70" height="70" viewBox="0 0 70 70">
  <g id="Group_2809" data-name="Group 2809" transform="translate(-778 -767)">
    <rect id="Rectangle_3347" data-name="Rectangle 3347" width="70" height="70" rx="12" transform="translate(778 767)" fill="#f9fafc"/>
    <path id="money_1_" data-name="money (1)" d="M24.566,24.688H6.465A6.473,6.473,0,0,1,0,18.223V10.465A6.473,6.473,0,0,1,6.465,4h18.1a6.473,6.473,0,0,1,6.465,6.465v7.758a6.473,6.473,0,0,1-6.465,6.465Zm-18.1-18.1a3.879,3.879,0,0,0-3.879,3.879v7.758A3.879,3.879,0,0,0,6.465,22.1h18.1a3.879,3.879,0,0,0,3.879-3.879V10.465a3.879,3.879,0,0,0-3.879-3.879Zm9.051,12.93a5.172,5.172,0,1,1,5.172-5.172A5.172,5.172,0,0,1,15.516,19.516Zm0-7.758A2.586,2.586,0,1,0,18.1,14.344,2.586,2.586,0,0,0,15.516,11.758ZM6.465,9.172a1.293,1.293,0,1,0,1.293,1.293A1.293,1.293,0,0,0,6.465,9.172Zm16.809,1.293a1.293,1.293,0,1,0,1.293-1.293A1.293,1.293,0,0,0,23.274,10.465ZM6.465,16.93a1.293,1.293,0,1,0,1.293,1.293A1.293,1.293,0,0,0,6.465,16.93Zm16.809,1.293a1.293,1.293,0,1,0,1.293-1.293A1.293,1.293,0,0,0,23.274,18.223Z" transform="translate(797.591 787.8)"/>
  </g>
</svg>
