<svg id="calendar_2_" data-name="calendar (2)" xmlns="http://www.w3.org/2000/svg" width="24" height="24" viewBox="0 0 24 24">
  <path id="Path_3922" data-name="Path 3922" d="M19,2H18V1a1,1,0,1,0-2,0V2H8V1A1,1,0,1,0,6,1V2H5A5.006,5.006,0,0,0,0,7V19a5.006,5.006,0,0,0,5,5H19a5.006,5.006,0,0,0,5-5V7A5.006,5.006,0,0,0,19,2ZM2,7A3,3,0,0,1,5,4H19a3,3,0,0,1,3,3V8H2ZM19,22H5a3,3,0,0,1-3-3V10H22v9A3,3,0,0,1,19,22Z"/>
  <circle id="Ellipse_518" data-name="Ellipse 518" cx="1.5" cy="1.5" r="1.5" transform="translate(10.5 13.5)"/>
  <circle id="Ellipse_519" data-name="Ellipse 519" cx="1.5" cy="1.5" r="1.5" transform="translate(5.5 13.5)"/>
  <circle id="Ellipse_520" data-name="Ellipse 520" cx="1.5" cy="1.5" r="1.5" transform="translate(15.5 13.5)"/>
</svg>
