<svg xmlns="http://www.w3.org/2000/svg" xmlns:xlink="http://www.w3.org/1999/xlink" width="66" height="66" viewBox="0 0 66 66">
  <defs>
    <clipPath id="clip-path">
      <rect id="Rectangle_3305" data-name="Rectangle 3305" width="66" height="66" transform="translate(-0.003 -0.003)"/>
    </clipPath>
  </defs>
  <g id="TikTok_r_logo" data-name="TikTok r logo" transform="translate(0.003 0.003)" clip-path="url(#clip-path)">
    <circle id="Ellipse_527" data-name="Ellipse 527" cx="33" cy="33" r="33" transform="translate(-0.003 -0.003)" fill="#edf8f8"/>
    <path id="logo-tiktok-svgrepo-com" d="M76.122,23.952a8.445,8.445,0,0,1-.731-.426,10.279,10.279,0,0,1-1.877-1.6A8.873,8.873,0,0,1,71.4,17.558h.008A5.393,5.393,0,0,1,71.323,16H64.949V40.693c0,.332,0,.659-.014.983,0,.04,0,.077-.006.121a.266.266,0,0,1,0,.055v.014a5.423,5.423,0,0,1-2.723,4.3,5.312,5.312,0,0,1-2.638.7,5.422,5.422,0,0,1,0-10.844,5.319,5.319,0,0,1,1.655.263l.008-6.5A11.827,11.827,0,0,0,52.1,32.456a12.528,12.528,0,0,0-2.729,3.372,11.7,11.7,0,0,0-1.407,5.363,12.68,12.68,0,0,0,.684,4.239v.015a12.488,12.488,0,0,0,1.73,3.162,12.964,12.964,0,0,0,2.761,2.61V51.2l.015.016a11.912,11.912,0,0,0,6.508,1.963,11.5,11.5,0,0,0,4.83-1.07,12.124,12.124,0,0,0,3.922-2.953A12.279,12.279,0,0,0,70.554,45.6a13.348,13.348,0,0,0,.769-4.069v-13.1c.077.046,1.107.729,1.107.729a14.729,14.729,0,0,0,3.8,1.573,21.841,21.841,0,0,0,3.9.534V24.929A8.254,8.254,0,0,1,76.122,23.952Z" transform="translate(-31.046 -1.594)" fill="#1b8186"/>
  </g>
</svg>
