<svg xmlns="http://www.w3.org/2000/svg" width="21.746" height="21.823" viewBox="0 0 21.746 21.823">
  <path id="primary" d="M22.86,16.248v4.339A2.208,2.208,0,0,1,20.332,22.8,19.872,19.872,0,0,1,3.142,5.528,2.208,2.208,0,0,1,5.339,3H9.612a1.1,1.1,0,0,1,1.1.983,11.857,11.857,0,0,0,1.1,4.173,1.1,1.1,0,0,1-.464,1.391l-.949.541a1.1,1.1,0,0,0-.364,1.612,15.545,15.545,0,0,0,4.074,4.074,1.1,1.1,0,0,0,1.612-.364l.541-.949a1.1,1.1,0,0,1,1.435-.42,11.857,11.857,0,0,0,4.173,1.1,1.1,1.1,0,0,1,.983,1.1Z" transform="translate(-2.114 -2)" fill="none" stroke="#fff" stroke-linecap="round" stroke-linejoin="round" stroke-width="2"/>
</svg>
