<svg id="clock_1_" data-name="clock (1)" xmlns="http://www.w3.org/2000/svg" width="14.666" height="14.666" viewBox="0 0 14.666 14.666">
  <path id="Path_3857" data-name="Path 3857" d="M7.333,0a7.333,7.333,0,1,0,7.333,7.333A7.333,7.333,0,0,0,7.333,0Zm0,13.444a6.111,6.111,0,1,1,6.111-6.111A6.111,6.111,0,0,1,7.333,13.444Z" transform="translate(0 0)" fill="#0a3133"/>
  <path id="Path_3858" data-name="Path 3858" d="M10.117,6a.611.611,0,0,0-.611.611V9.254l-2.06,1.291a.612.612,0,1,0,.649,1.039l2.347-1.467a.611.611,0,0,0,.287-.524V6.611A.611.611,0,0,0,10.117,6Z" transform="translate(-2.784 -2.333)" fill="#0a3133"/>
</svg>
