<svg xmlns="http://www.w3.org/2000/svg" width="19.44" height="12.96" viewBox="0 0 19.44 12.96">
  <path id="money_1_" data-name="money (1)" d="M15.39,16.96H4.05A4.055,4.055,0,0,1,0,12.91V8.05A4.055,4.055,0,0,1,4.05,4H15.39a4.055,4.055,0,0,1,4.05,4.05v4.86a4.055,4.055,0,0,1-4.05,4.05ZM4.05,5.62A2.43,2.43,0,0,0,1.62,8.05v4.86a2.43,2.43,0,0,0,2.43,2.43H15.39a2.43,2.43,0,0,0,2.43-2.43V8.05a2.43,2.43,0,0,0-2.43-2.43Zm5.67,8.1a3.24,3.24,0,1,1,3.24-3.24A3.24,3.24,0,0,1,9.72,13.72Zm0-4.86a1.62,1.62,0,1,0,1.62,1.62A1.62,1.62,0,0,0,9.72,8.86ZM4.05,7.24a.81.81,0,1,0,.81.81A.81.81,0,0,0,4.05,7.24Zm10.53.81a.81.81,0,1,0,.81-.81A.81.81,0,0,0,14.58,8.05ZM4.05,12.1a.81.81,0,1,0,.81.81A.81.81,0,0,0,4.05,12.1Zm10.53.81a.81.81,0,1,0,.81-.81A.81.81,0,0,0,14.58,12.91Z" transform="translate(0 -4)" fill="#83d142"/>
</svg>
