<svg xmlns="http://www.w3.org/2000/svg" width="12.012" height="16.016" viewBox="0 0 12.012 16.016">
  <g id="Group_2809" data-name="Group 2809" transform="translate(-18.115 -12.369)">
    <g id="_01_align_center" data-name="01 align center" transform="translate(18.115 12.369)">
      <path id="Path_3842" data-name="Path 3842" d="M15.012,20.673H13.677V17.308A1.975,1.975,0,0,0,11.7,15.335h-5.4a1.975,1.975,0,0,0-1.973,1.973v3.365H3V17.308A3.312,3.312,0,0,1,6.308,14h5.4a3.312,3.312,0,0,1,3.308,3.308Z" transform="translate(-3 -4.658)" fill="#0a3133"/>
      <path id="Path_3843" data-name="Path 3843" d="M10,8.008a4,4,0,1,1,4-4A4,4,0,0,1,10,8.008Zm0-6.673A2.669,2.669,0,1,0,12.673,4,2.669,2.669,0,0,0,10,1.335Z" transform="translate(-3.998)" fill="#0a3133"/>
    </g>
  </g>
</svg>
