<svg xmlns="http://www.w3.org/2000/svg" width="15" height="17" viewBox="0 0 15 17">
  <g id="Group_2808" data-name="Group 2808" transform="translate(-663.292 -380)">
    <g id="Group_2807" data-name="Group 2807">
      <path id="Ellipse_501_-_Outline" data-name="Ellipse 501 - Outline" d="M7.5,1.5A9.077,9.077,0,0,0,2.968,2.6,2.522,2.522,0,0,0,1.5,4.5,2.522,2.522,0,0,0,2.968,6.4,9.077,9.077,0,0,0,7.5,7.5a9.077,9.077,0,0,0,4.532-1.1A2.522,2.522,0,0,0,13.5,4.5a2.522,2.522,0,0,0-1.468-1.9A9.077,9.077,0,0,0,7.5,1.5M7.5,0C11.642,0,15,2.015,15,4.5S11.642,9,7.5,9,0,6.985,0,4.5,3.358,0,7.5,0Z" transform="translate(663.292 388)" fill="#83d142"/>
      <path id="Ellipse_502_-_Outline" data-name="Ellipse 502 - Outline" d="M7.5,1.5A9.077,9.077,0,0,0,2.968,2.6,2.522,2.522,0,0,0,1.5,4.5,2.522,2.522,0,0,0,2.968,6.4,9.077,9.077,0,0,0,7.5,7.5a9.077,9.077,0,0,0,4.532-1.1A2.522,2.522,0,0,0,13.5,4.5a2.522,2.522,0,0,0-1.468-1.9A9.077,9.077,0,0,0,7.5,1.5M7.5,0C11.642,0,15,2.015,15,4.5S11.642,9,7.5,9,0,6.985,0,4.5,3.358,0,7.5,0Z" transform="translate(663.292 384)" fill="#83d142"/>
    </g>
    <path id="Ellipse_503_-_Outline" data-name="Ellipse 503 - Outline" d="M7.5,1.5A9.077,9.077,0,0,0,2.968,2.6,2.522,2.522,0,0,0,1.5,4.5,2.522,2.522,0,0,0,2.968,6.4,9.077,9.077,0,0,0,7.5,7.5a9.077,9.077,0,0,0,4.532-1.1A2.522,2.522,0,0,0,13.5,4.5a2.522,2.522,0,0,0-1.468-1.9A9.077,9.077,0,0,0,7.5,1.5M7.5,0C11.642,0,15,2.015,15,4.5S11.642,9,7.5,9,0,6.985,0,4.5,3.358,0,7.5,0Z" transform="translate(663.292 380)" fill="#83d142"/>
  </g>
</svg>
